<svg version="1.1" xmlns="http://www.w3.org/2000/svg" xmlns:xlink="http://www.w3.org/1999/xlink" width="2276" height="814"><defs/><g><g transform="translate(-6,-30) scale(1,1)"><rect fill="#C0C0C0" stroke="none" x="159" y="135" width="192" height="200" opacity="0.2"/></g><g transform="translate(-6,-30) scale(1,1)"><rect fill="#ffffff" stroke="none" x="152" y="128" width="192" height="200"/></g><g transform="translate(-6,-30) scale(1,1)"><path fill="none" stroke="#000000" d="M 152 128 L 344 128 L 344 328 L 152 328 L 152 128 Z Z" stroke-miterlimit="10"/></g><g transform="translate(-6,-30) scale(1,1)"><g><path fill="none" stroke="none"/><text fill="#000000" stroke="none" font-family="Arial" font-size="13px" font-style="normal" font-weight="bold" text-decoration="none" x="192.353271484375" y="147.5">1 Job Management</text></g></g><g transform="translate(-6,-30) scale(1,1)"><rect fill="#C0C0C0" stroke="none" x="607" y="135" width="208" height="200" opacity="0.2"/></g><g transform="translate(-6,-30) scale(1,1)"><rect fill="#ffffff" stroke="none" x="600" y="128" width="208" height="200"/></g><g transform="translate(-6,-30) scale(1,1)"><path fill="none" stroke="#000000" d="M 600 128 L 808 128 L 808 328 L 600 328 L 600 128 Z Z" stroke-miterlimit="10"/></g><g transform="translate(-6,-30) scale(1,1)"><g><path fill="none" stroke="none"/><text fill="#000000" stroke="none" font-family="Arial" font-size="13px" font-style="normal" font-weight="bold" text-decoration="none" x="665.6982421875" y="147.5">2 Job Search</text></g></g><g transform="translate(-6,-30) scale(1,1)"><rect fill="#C0C0C0" stroke="none" x="119" y="479" width="271" height="223" opacity="0.2"/></g><g transform="translate(-6,-30) scale(1,1)"><rect fill="#ffffff" stroke="none" x="112" y="472" width="271" height="223"/></g><g transform="translate(-6,-30) scale(1,1)"><path fill="none" stroke="#000000" d="M 112 472 L 383 472 L 383 695 L 112 695 L 112 472 Z Z" stroke-miterlimit="10"/></g><g transform="translate(-6,-30) scale(1,1)"><g><path fill="none" stroke="none"/><text fill="#000000" stroke="none" font-family="Arial" font-size="13px" font-style="normal" font-weight="bold" text-decoration="none" x="170.53466796875" y="491.5">3 Application Management</text></g></g><g transform="translate(-6,-30) scale(1,1)"><rect fill="#C0C0C0" stroke="none" x="703" y="455" width="320" height="288" opacity="0.2"/></g><g transform="translate(-6,-30) scale(1,1)"><rect fill="#ffffff" stroke="none" x="696" y="448" width="320" height="288"/></g><g transform="translate(-6,-30) scale(1,1)"><path fill="none" stroke="#000000" d="M 696 448 L 1016 448 L 1016 736 L 696 736 L 696 448 Z Z" stroke-miterlimit="10"/></g><g transform="translate(-6,-30) scale(1,1)"><g><path fill="none" stroke="none"/><text fill="#000000" stroke="none" font-family="Arial" font-size="13px" font-style="normal" font-weight="bold" text-decoration="none" x="797.109619140625" y="467.5">5 User Management</text></g></g><g transform="translate(-6,-30) scale(1,1)"><rect fill="#C0C0C0" stroke="none" x="919" y="103" width="280" height="280" opacity="0.2"/></g><g transform="translate(-6,-30) scale(1,1)"><rect fill="#ffffff" stroke="none" x="912" y="96" width="280" height="280"/></g><g transform="translate(-6,-30) scale(1,1)"><path fill="none" stroke="#000000" d="M 912 96 L 1192 96 L 1192 376 L 912 376 L 912 96 Z Z" stroke-miterlimit="10"/></g><g transform="translate(-6,-30) scale(1,1)"><g><path fill="none" stroke="none"/><text fill="#000000" stroke="none" font-family="Arial" font-size="13px" font-style="normal" font-weight="bold" text-decoration="none" x="980.09375" y="115.5">9 Applicant Management</text></g></g><g transform="translate(-6,-30) scale(1,1)"><rect fill="#C0C0C0" stroke="none" x="1640" y="81" width="305" height="568" opacity="0.2"/></g><g transform="translate(-6,-30) scale(1,1)"><rect fill="#ffffff" stroke="none" x="1633" y="74" width="305" height="568"/></g><g transform="translate(-6,-30) scale(1,1)"><path fill="none" stroke="#000000" d="M 1633 74 L 1938 74 L 1938 642 L 1633 642 L 1633 74 Z Z" stroke-miterlimit="10"/></g><g transform="translate(-6,-30) scale(1,1)"><g><path fill="none" stroke="none"/><text fill="#000000" stroke="none" font-family="Arial" font-size="13px" font-style="normal" font-weight="bold" text-decoration="none" x="1763.8291015625" y="93.5">System</text></g></g><g transform="translate(-6,-30) scale(1,1)"><path fill="#C0C0C0" stroke="none" d="M 170 192 C 170 182.6111584 206.71264639999998 175 252 175 C 297.2873536 175 334 182.6111584 334 192 C 334 201.3888416 297.2873536 209 252 209 C 206.71264639999998 209 170 201.3888416 170 192 Z" opacity="0.2"/></g><g transform="translate(-6,-30) scale(1,1)"><path fill="#ffffff" stroke="none" d="M 163 185 C 163 175.6111584 199.71264639999998 168 245 168 C 290.2873536 168 327 175.6111584 327 185 C 327 194.3888416 290.2873536 202 245 202 C 199.71264639999998 202 163 194.3888416 163 185 Z"/></g><g transform="translate(-6,-30) scale(1,1)"><path fill="none" stroke="#000000" d="M 163 185 C 163 175.6111584 199.71264639999998 168 245 168 C 290.2873536 168 327 175.6111584 327 185 C 327 194.3888416 290.2873536 202 245 202 C 199.71264639999998 202 163 194.3888416 163 185 Z" stroke-miterlimit="10"/></g><g transform="translate(-6,-30) scale(1,1)"><g><path fill="none" stroke="none"/><text fill="#000000" stroke="none" font-family="Arial" font-size="13px" font-style="normal" font-weight="bold" text-decoration="none" x="194.056884765625" y="192">1.1 Post New Job</text></g></g><g transform="translate(-6,-30) scale(1,1)"><path fill="#C0C0C0" stroke="none" d="M 186 240 C 186 230.6111584 215.7730608 223 252.5 223 C 289.2269392 223 319 230.6111584 319 240 C 319 249.3888416 289.2269392 257 252.5 257 C 215.7730608 257 186 249.3888416 186 240 Z" opacity="0.2"/></g><g transform="translate(-6,-30) scale(1,1)"><path fill="#ffffff" stroke="none" d="M 179 233 C 179 223.6111584 208.7730608 216 245.5 216 C 282.2269392 216 312 223.6111584 312 233 C 312 242.3888416 282.2269392 250 245.5 250 C 208.7730608 250 179 242.3888416 179 233 Z"/></g><g transform="translate(-6,-30) scale(1,1)"><path fill="none" stroke="#000000" d="M 179 233 C 179 223.6111584 208.7730608 216 245.5 216 C 282.2269392 216 312 223.6111584 312 233 C 312 242.3888416 282.2269392 250 245.5 250 C 208.7730608 250 179 242.3888416 179 233 Z" stroke-miterlimit="10"/></g><g transform="translate(-6,-30) scale(1,1)"><g><path fill="none" stroke="none"/><text fill="#000000" stroke="none" font-family="Arial" font-size="13px" font-style="normal" font-weight="bold" text-decoration="none" x="205.03369140625" y="240">1.2 View Jobs</text></g></g><g transform="translate(-6,-30) scale(1,1)"><path fill="#C0C0C0" stroke="none" d="M 194 288 C 194 278.6111584 219.96748159999999 271 252 271 C 284.0325184 271 310 278.6111584 310 288 C 310 297.3888416 284.0325184 305 252 305 C 219.96748159999999 305 194 297.3888416 194 288 Z" opacity="0.2"/></g><g transform="translate(-6,-30) scale(1,1)"><path fill="#ffffff" stroke="none" d="M 187 281 C 187 271.6111584 212.96748159999999 264 245 264 C 277.0325184 264 303 271.6111584 303 281 C 303 290.3888416 277.0325184 298 245 298 C 212.96748159999999 298 187 290.3888416 187 281 Z"/></g><g transform="translate(-6,-30) scale(1,1)"><path fill="none" stroke="#000000" d="M 187 281 C 187 271.6111584 212.96748159999999 264 245 264 C 277.0325184 264 303 271.6111584 303 281 C 303 290.3888416 277.0325184 298 245 298 C 212.96748159999999 298 187 290.3888416 187 281 Z" stroke-miterlimit="10"/></g><g transform="translate(-6,-30) scale(1,1)"><g><path fill="none" stroke="none"/><text fill="#000000" stroke="none" font-family="Arial" font-size="13px" font-style="normal" font-weight="bold" text-decoration="none" x="210.671875" y="288">1.3 Edit Job</text></g></g><g transform="translate(-6,-30) scale(1,1)"><path fill="#ffffff" stroke="none" d="M 424.40935031960225 185.68 C 424.40935031960225 180.886167936 428.29519264454774 177 433.088623046875 177 C 437.88205344920226 177 441.76789577414775 180.886167936 441.76789577414775 185.68 C 441.76789577414775 190.47383206400002 437.88205344920226 194.36 433.088623046875 194.36 C 428.29519264454774 194.36 424.40935031960225 190.47383206400002 424.40935031960225 185.68 Z"/></g><g transform="translate(-6,-30) scale(1,1)"><path fill="none" stroke="#000000" d="M 424.40935031960225 185.68 C 424.40935031960225 180.886167936 428.29519264454774 177 433.088623046875 177 C 437.88205344920226 177 441.76789577414775 180.886167936 441.76789577414775 185.68 C 441.76789577414775 190.47383206400002 437.88205344920226 194.36 433.088623046875 194.36 C 428.29519264454774 194.36 424.40935031960225 190.47383206400002 424.40935031960225 185.68 Z" stroke-miterlimit="10"/></g><g transform="translate(-6,-30) scale(1,1)"><path fill="none" stroke="#000000" d="M 433.088623046875 194.36 L 433.088623046875 211.64" stroke-miterlimit="10"/></g><g transform="translate(-6,-30) scale(1,1)"><path fill="none" stroke="#000000" d="M 423.89880486505683 200.84 L 442.27844122869317 200.84" stroke-miterlimit="10"/></g><g transform="translate(-6,-30) scale(1,1)"><path fill="none" stroke="#000000" d="M 433.088623046875 211.64 L 420.32498668323865 229" stroke-miterlimit="10"/></g><g transform="translate(-6,-30) scale(1,1)"><path fill="none" stroke="#000000" d="M 433.088623046875 211.64 L 445.85225941051135 229" stroke-miterlimit="10"/></g><g transform="translate(-6,-30) scale(1,1)"><g><path fill="none" stroke="none"/><text fill="#000000" stroke="none" font-family="Arial" font-size="13px" font-style="normal" font-weight="bold" text-decoration="none" x="418.63818359375" y="249.5">Boss</text></g></g><g transform="translate(-6,-30) scale(1,1)"><path fill="none" stroke="#000000" d="M 407 211 L 328 198" stroke-miterlimit="10"/></g><g transform="translate(-6,-30) scale(1,1)"><path fill="none" stroke="#000000" d="M 407 217 L 313 226" stroke-miterlimit="10"/></g><g transform="translate(-6,-30) scale(1,1)"><path fill="none" stroke="#000000" d="M 407 224 L 296 263" stroke-miterlimit="10"/></g><g transform="translate(-6,-30) scale(1,1)"><path fill="#C0C0C0" stroke="none" d="M 631 200 C 631 190.6111584 665.2502128 183 707.5 183 C 749.7497872 183 784 190.6111584 784 200 C 784 209.3888416 749.7497872 217 707.5 217 C 665.2502128 217 631 209.3888416 631 200 Z" opacity="0.2"/></g><g transform="translate(-6,-30) scale(1,1)"><path fill="#ffffff" stroke="none" d="M 624 193 C 624 183.6111584 658.2502128 176 700.5 176 C 742.7497872 176 777 183.6111584 777 193 C 777 202.3888416 742.7497872 210 700.5 210 C 658.2502128 210 624 202.3888416 624 193 Z"/></g><g transform="translate(-6,-30) scale(1,1)"><path fill="none" stroke="#000000" d="M 624 193 C 624 183.6111584 658.2502128 176 700.5 176 C 742.7497872 176 777 183.6111584 777 193 C 777 202.3888416 742.7497872 210 700.5 210 C 658.2502128 210 624 202.3888416 624 193 Z" stroke-miterlimit="10"/></g><g transform="translate(-6,-30) scale(1,1)"><g><path fill="none" stroke="none"/><text fill="#000000" stroke="none" font-family="Arial" font-size="13px" font-style="normal" font-weight="bold" text-decoration="none" x="653.52734375" y="200">2.1 Search Jobs</text></g></g><g transform="translate(-6,-30) scale(1,1)"><path fill="#C0C0C0" stroke="none" d="M 615 248 C 615 238.6111584 657.0852288 231 709 231 C 760.9147712 231 803 238.6111584 803 248 C 803 257.3888416 760.9147712 265 709 265 C 657.0852288 265 615 257.3888416 615 248 Z" opacity="0.2"/></g><g transform="translate(-6,-30) scale(1,1)"><path fill="#ffffff" stroke="none" d="M 608 241 C 608 231.6111584 650.0852288 224 702 224 C 753.9147712 224 796 231.6111584 796 241 C 796 250.3888416 753.9147712 258 702 258 C 650.0852288 258 608 250.3888416 608 241 Z"/></g><g transform="translate(-6,-30) scale(1,1)"><path fill="none" stroke="#000000" d="M 608 241 C 608 231.6111584 650.0852288 224 702 224 C 753.9147712 224 796 231.6111584 796 241 C 796 250.3888416 753.9147712 258 702 258 C 650.0852288 258 608 250.3888416 608 241 Z" stroke-miterlimit="10"/></g><g transform="translate(-6,-30) scale(1,1)"><g><path fill="none" stroke="none"/><text fill="#000000" stroke="none" font-family="Arial" font-size="13px" font-style="normal" font-weight="bold" text-decoration="none" x="643.109619140625" y="248">2.2 View Job Details</text></g></g><g transform="translate(-6,-30) scale(1,1)"><path fill="#ffffff" stroke="none" d="M 520.4093503196023 185.68 C 520.4093503196023 180.886167936 524.2951926445477 177 529.088623046875 177 C 533.8820534492023 177 537.7678957741477 180.886167936 537.7678957741477 185.68 C 537.7678957741477 190.47383206400002 533.8820534492023 194.36 529.088623046875 194.36 C 524.2951926445477 194.36 520.4093503196023 190.47383206400002 520.4093503196023 185.68 Z"/></g><g transform="translate(-6,-30) scale(1,1)"><path fill="none" stroke="#000000" d="M 520.4093503196023 185.68 C 520.4093503196023 180.886167936 524.2951926445477 177 529.088623046875 177 C 533.8820534492023 177 537.7678957741477 180.886167936 537.7678957741477 185.68 C 537.7678957741477 190.47383206400002 533.8820534492023 194.36 529.088623046875 194.36 C 524.2951926445477 194.36 520.4093503196023 190.47383206400002 520.4093503196023 185.68 Z" stroke-miterlimit="10"/></g><g transform="translate(-6,-30) scale(1,1)"><path fill="none" stroke="#000000" d="M 529.088623046875 194.36 L 529.088623046875 211.64" stroke-miterlimit="10"/></g><g transform="translate(-6,-30) scale(1,1)"><path fill="none" stroke="#000000" d="M 519.8988048650568 200.84 L 538.2784412286932 200.84" stroke-miterlimit="10"/></g><g transform="translate(-6,-30) scale(1,1)"><path fill="none" stroke="#000000" d="M 529.088623046875 211.64 L 516.3249866832386 229" stroke-miterlimit="10"/></g><g transform="translate(-6,-30) scale(1,1)"><path fill="none" stroke="#000000" d="M 529.088623046875 211.64 L 541.8522594105114 229" stroke-miterlimit="10"/></g><g transform="translate(-6,-30) scale(1,1)"><g><path fill="none" stroke="none"/><text fill="#000000" stroke="none" font-family="Arial" font-size="13px" font-style="normal" font-weight="bold" text-decoration="none" x="516.082275390625" y="249.5">Irgat</text></g></g><g transform="translate(-6,-30) scale(1,1)"><path fill="none" stroke="#000000" d="M 555 212 L 623 203" stroke-miterlimit="10"/></g><g transform="translate(-6,-30) scale(1,1)"><path fill="none" stroke="#000000" d="M 555 219 L 607 227" stroke-miterlimit="10"/></g><g transform="translate(-6,-30) scale(1,1)"><path fill="#C0C0C0" stroke="none" d="M 175 536 C 175 526.6111584 210.1456432 519 253.5 519 C 296.8543568 519 332 526.6111584 332 536 C 332 545.3888416 296.8543568 553 253.5 553 C 210.1456432 553 175 545.3888416 175 536 Z" opacity="0.2"/></g><g transform="translate(-6,-30) scale(1,1)"><path fill="#ffffff" stroke="none" d="M 168 529 C 168 519.6111584 203.1456432 512 246.5 512 C 289.8543568 512 325 519.6111584 325 529 C 325 538.3888416 289.8543568 546 246.5 546 C 203.1456432 546 168 538.3888416 168 529 Z"/></g><g transform="translate(-6,-30) scale(1,1)"><path fill="none" stroke="#000000" d="M 168 529 C 168 519.6111584 203.1456432 512 246.5 512 C 289.8543568 512 325 519.6111584 325 529 C 325 538.3888416 289.8543568 546 246.5 546 C 203.1456432 546 168 538.3888416 168 529 Z" stroke-miterlimit="10"/></g><g transform="translate(-6,-30) scale(1,1)"><g><path fill="none" stroke="none"/><text fill="#000000" stroke="none" font-family="Arial" font-size="13px" font-style="normal" font-weight="bold" text-decoration="none" x="199.52734375" y="536">3.1 Apply for job</text></g></g><g transform="translate(-6,-30) scale(1,1)"><path fill="#C0C0C0" stroke="none" d="M 159 584 C 159 574.6111584 203.99537759999998 567 259.5 567 C 315.0046224 567 360 574.6111584 360 584 C 360 593.3888416 315.0046224 601 259.5 601 C 203.99537759999998 601 159 593.3888416 159 584 Z" opacity="0.2"/></g><g transform="translate(-6,-30) scale(1,1)"><path fill="#ffffff" stroke="none" d="M 152 577 C 152 567.6111584 196.99537759999998 560 252.5 560 C 308.0046224 560 353 567.6111584 353 577 C 353 586.3888416 308.0046224 594 252.5 594 C 196.99537759999998 594 152 586.3888416 152 577 Z"/></g><g transform="translate(-6,-30) scale(1,1)"><path fill="none" stroke="#000000" d="M 152 577 C 152 567.6111584 196.99537759999998 560 252.5 560 C 308.0046224 560 353 567.6111584 353 577 C 353 586.3888416 308.0046224 594 252.5 594 C 196.99537759999998 594 152 586.3888416 152 577 Z" stroke-miterlimit="10"/></g><g transform="translate(-6,-30) scale(1,1)"><g><path fill="none" stroke="none"/><text fill="#000000" stroke="none" font-family="Arial" font-size="13px" font-style="normal" font-weight="bold" text-decoration="none" x="190.715087890625" y="584">3.2 View Applications</text></g></g><g transform="translate(-6,-30) scale(1,1)"><path fill="#C0C0C0" stroke="none" d="M 167 632 C 167 622.6111584 207.9659408 615 258.5 615 C 309.0340592 615 350 622.6111584 350 632 C 350 641.3888416 309.0340592 649 258.5 649 C 207.9659408 649 167 641.3888416 167 632 Z" opacity="0.2"/></g><g transform="translate(-6,-30) scale(1,1)"><path fill="#ffffff" stroke="none" d="M 160 625 C 160 615.6111584 200.9659408 608 251.5 608 C 302.0340592 608 343 615.6111584 343 625 C 343 634.3888416 302.0340592 642 251.5 642 C 200.9659408 642 160 634.3888416 160 625 Z"/></g><g transform="translate(-6,-30) scale(1,1)"><path fill="none" stroke="#000000" d="M 160 625 C 160 615.6111584 200.9659408 608 251.5 608 C 302.0340592 608 343 615.6111584 343 625 C 343 634.3888416 302.0340592 642 251.5 642 C 200.9659408 642 160 634.3888416 160 625 Z" stroke-miterlimit="10"/></g><g transform="translate(-6,-30) scale(1,1)"><g><path fill="none" stroke="none"/><text fill="#000000" stroke="none" font-family="Arial" font-size="13px" font-style="normal" font-weight="bold" text-decoration="none" x="195.853271484375" y="632">3.3 Edit Application</text></g></g><g transform="translate(-6,-30) scale(1,1)"><path fill="#ffffff" stroke="none" d="M 48.40935031960227 545.6800000000001 C 48.40935031960227 540.8861679360001 52.295192644547726 537 57.088623046875 537 C 61.882053449202274 537 65.76789577414773 540.8861679360001 65.76789577414773 545.6800000000001 C 65.76789577414773 550.473832064 61.882053449202274 554.36 57.088623046875 554.36 C 52.295192644547726 554.36 48.40935031960227 550.473832064 48.40935031960227 545.6800000000001 Z"/></g><g transform="translate(-6,-30) scale(1,1)"><path fill="none" stroke="#000000" d="M 48.40935031960227 545.6800000000001 C 48.40935031960227 540.8861679360001 52.295192644547726 537 57.088623046875 537 C 61.882053449202274 537 65.76789577414773 540.8861679360001 65.76789577414773 545.6800000000001 C 65.76789577414773 550.473832064 61.882053449202274 554.36 57.088623046875 554.36 C 52.295192644547726 554.36 48.40935031960227 550.473832064 48.40935031960227 545.6800000000001 Z" stroke-miterlimit="10"/></g><g transform="translate(-6,-30) scale(1,1)"><path fill="none" stroke="#000000" d="M 57.088623046875 554.36 L 57.088623046875 571.64" stroke-miterlimit="10"/></g><g transform="translate(-6,-30) scale(1,1)"><path fill="none" stroke="#000000" d="M 47.89880486505682 560.84 L 66.27844122869318 560.84" stroke-miterlimit="10"/></g><g transform="translate(-6,-30) scale(1,1)"><path fill="none" stroke="#000000" d="M 57.088623046875 571.64 L 44.324986683238635 589" stroke-miterlimit="10"/></g><g transform="translate(-6,-30) scale(1,1)"><path fill="none" stroke="#000000" d="M 57.088623046875 571.64 L 69.85225941051137 589" stroke-miterlimit="10"/></g><g transform="translate(-6,-30) scale(1,1)"><g><path fill="none" stroke="none"/><text fill="#000000" stroke="none" font-family="Arial" font-size="13px" font-style="normal" font-weight="bold" text-decoration="none" x="44.082275390625" y="609.5">Irgat</text></g></g><g transform="translate(-6,-30) scale(1,1)"><path fill="none" stroke="#000000" d="M 83 569 L 172 547" stroke-miterlimit="10"/></g><g transform="translate(-6,-30) scale(1,1)"><path fill="none" stroke="#000000" d="M 83 575 L 151 576" stroke-miterlimit="10"/></g><g transform="translate(-6,-30) scale(1,1)"><path fill="none" stroke="#000000" d="M 83 582 L 181 607" stroke-miterlimit="10"/></g><g transform="translate(-6,-30) scale(1,1)"><path fill="#C0C0C0" stroke="none" d="M 783 504 C 783 494.6111584 815.9070672 487 856.5 487 C 897.0929328 487 930 494.6111584 930 504 C 930 513.3888416 897.0929328 521 856.5 521 C 815.9070672 521 783 513.3888416 783 504 Z" opacity="0.2"/></g><g transform="translate(-6,-30) scale(1,1)"><path fill="#ffffff" stroke="none" d="M 776 497 C 776 487.6111584 808.9070672 480 849.5 480 C 890.0929328 480 923 487.6111584 923 497 C 923 506.3888416 890.0929328 514 849.5 514 C 808.9070672 514 776 506.3888416 776 497 Z"/></g><g transform="translate(-6,-30) scale(1,1)"><path fill="none" stroke="#000000" d="M 776 497 C 776 487.6111584 808.9070672 480 849.5 480 C 890.0929328 480 923 487.6111584 923 497 C 923 506.3888416 890.0929328 514 849.5 514 C 808.9070672 514 776 506.3888416 776 497 Z" stroke-miterlimit="10"/></g><g transform="translate(-6,-30) scale(1,1)"><g><path fill="none" stroke="none"/><text fill="#000000" stroke="none" font-family="Arial" font-size="13px" font-style="normal" font-weight="bold" text-decoration="none" x="803.619140625" y="504">5.1 Create User</text></g></g><g transform="translate(-6,-30) scale(1,1)"><path fill="#C0C0C0" stroke="none" d="M 775 552 C 775 542.6111584 813.055792 535 860 535 C 906.944208 535 945 542.6111584 945 552 C 945 561.3888416 906.944208 569 860 569 C 813.055792 569 775 561.3888416 775 552 Z" opacity="0.2"/></g><g transform="translate(-6,-30) scale(1,1)"><path fill="#ffffff" stroke="none" d="M 768 545 C 768 535.6111584 806.055792 528 853 528 C 899.944208 528 938 535.6111584 938 545 C 938 554.3888416 899.944208 562 853 562 C 806.055792 562 768 554.3888416 768 545 Z"/></g><g transform="translate(-6,-30) scale(1,1)"><path fill="none" stroke="#000000" d="M 768 545 C 768 535.6111584 806.055792 528 853 528 C 899.944208 528 938 535.6111584 938 545 C 938 554.3888416 899.944208 562 853 562 C 806.055792 562 768 554.3888416 768 545 Z" stroke-miterlimit="10"/></g><g transform="translate(-6,-30) scale(1,1)"><g><path fill="none" stroke="none"/><text fill="#000000" stroke="none" font-family="Arial" font-size="13px" font-style="normal" font-weight="bold" text-decoration="none" x="799.892333984375" y="552">5.2 View User Info</text></g></g><g transform="translate(-6,-30) scale(1,1)"><path fill="#C0C0C0" stroke="none" d="M 783 600 C 783 590.6111584 819.936504 583 865.5 583 C 911.063496 583 948 590.6111584 948 600 C 948 609.3888416 911.063496 617 865.5 617 C 819.936504 617 783 609.3888416 783 600 Z" opacity="0.2"/></g><g transform="translate(-6,-30) scale(1,1)"><path fill="#ffffff" stroke="none" d="M 776 593 C 776 583.6111584 812.936504 576 858.5 576 C 904.063496 576 941 583.6111584 941 593 C 941 602.3888416 904.063496 610 858.5 610 C 812.936504 610 776 602.3888416 776 593 Z"/></g><g transform="translate(-6,-30) scale(1,1)"><path fill="none" stroke="#000000" d="M 776 593 C 776 583.6111584 812.936504 576 858.5 576 C 904.063496 576 941 583.6111584 941 593 C 941 602.3888416 904.063496 610 858.5 610 C 812.936504 610 776 602.3888416 776 593 Z" stroke-miterlimit="10"/></g><g transform="translate(-6,-30) scale(1,1)"><g><path fill="none" stroke="none"/><text fill="#000000" stroke="none" font-family="Arial" font-size="13px" font-style="normal" font-weight="bold" text-decoration="none" x="808.280517578125" y="600">5.3 Edit User Info</text></g></g><g transform="translate(-6,-30) scale(1,1)"><path fill="#C0C0C0" stroke="none" d="M 711 648 C 711 638.6111584 778.6049952 631 862 631 C 945.3950048 631 1013 638.6111584 1013 648 C 1013 657.3888416 945.3950048 665 862 665 C 778.6049952 665 711 657.3888416 711 648 Z" opacity="0.2"/></g><g transform="translate(-6,-30) scale(1,1)"><path fill="#ffffff" stroke="none" d="M 704 641 C 704 631.6111584 771.6049952 624 855 624 C 938.3950048 624 1006 631.6111584 1006 641 C 1006 650.3888416 938.3950048 658 855 658 C 771.6049952 658 704 650.3888416 704 641 Z"/></g><g transform="translate(-6,-30) scale(1,1)"><path fill="none" stroke="#000000" d="M 704 641 C 704 631.6111584 771.6049952 624 855 624 C 938.3950048 624 1006 631.6111584 1006 641 C 1006 650.3888416 938.3950048 658 855 658 C 771.6049952 658 704 650.3888416 704 641 Z" stroke-miterlimit="10"/></g><g transform="translate(-6,-30) scale(1,1)"><g><path fill="none" stroke="none"/><text fill="#000000" stroke="none" font-family="Arial" font-size="13px" font-style="normal" font-weight="bold" text-decoration="none" x="757.08740234375" y="648">5.4 User Preference Management</text></g></g><g transform="translate(-6,-30) scale(1,1)"><path fill="#C0C0C0" stroke="none" d="M 751 696 C 751 686.6111584 803.3826784 679 868 679 C 932.6173216 679 985 686.6111584 985 696 C 985 705.3888416 932.6173216 713 868 713 C 803.3826784 713 751 705.3888416 751 696 Z" opacity="0.2"/></g><g transform="translate(-6,-30) scale(1,1)"><path fill="#ffffff" stroke="none" d="M 744 689 C 744 679.6111584 796.3826784 672 861 672 C 925.6173216 672 978 679.6111584 978 689 C 978 698.3888416 925.6173216 706 861 706 C 796.3826784 706 744 698.3888416 744 689 Z"/></g><g transform="translate(-6,-30) scale(1,1)"><path fill="none" stroke="#000000" d="M 744 689 C 744 679.6111584 796.3826784 672 861 672 C 925.6173216 672 978 679.6111584 978 689 C 978 698.3888416 925.6173216 706 861 706 C 796.3826784 706 744 698.3888416 744 689 Z" stroke-miterlimit="10"/></g><g transform="translate(-6,-30) scale(1,1)"><g><path fill="none" stroke="none"/><text fill="#000000" stroke="none" font-family="Arial" font-size="13px" font-style="normal" font-weight="bold" text-decoration="none" x="786.926025390625" y="696">5.5 Account Management</text></g></g><g transform="translate(-6,-30) scale(1,1)"><path fill="#ffffff" stroke="none" d="M 624.4093503196023 561.6800000000001 C 624.4093503196023 556.8861679360001 628.2951926445477 553 633.088623046875 553 C 637.8820534492023 553 641.7678957741477 556.8861679360001 641.7678957741477 561.6800000000001 C 641.7678957741477 566.473832064 637.8820534492023 570.36 633.088623046875 570.36 C 628.2951926445477 570.36 624.4093503196023 566.473832064 624.4093503196023 561.6800000000001 Z"/></g><g transform="translate(-6,-30) scale(1,1)"><path fill="none" stroke="#000000" d="M 624.4093503196023 561.6800000000001 C 624.4093503196023 556.8861679360001 628.2951926445477 553 633.088623046875 553 C 637.8820534492023 553 641.7678957741477 556.8861679360001 641.7678957741477 561.6800000000001 C 641.7678957741477 566.473832064 637.8820534492023 570.36 633.088623046875 570.36 C 628.2951926445477 570.36 624.4093503196023 566.473832064 624.4093503196023 561.6800000000001 Z" stroke-miterlimit="10"/></g><g transform="translate(-6,-30) scale(1,1)"><path fill="none" stroke="#000000" d="M 633.088623046875 570.36 L 633.088623046875 587.64" stroke-miterlimit="10"/></g><g transform="translate(-6,-30) scale(1,1)"><path fill="none" stroke="#000000" d="M 623.8988048650568 576.84 L 642.2784412286932 576.84" stroke-miterlimit="10"/></g><g transform="translate(-6,-30) scale(1,1)"><path fill="none" stroke="#000000" d="M 633.088623046875 587.64 L 620.3249866832386 605" stroke-miterlimit="10"/></g><g transform="translate(-6,-30) scale(1,1)"><path fill="none" stroke="#000000" d="M 633.088623046875 587.64 L 645.8522594105114 605" stroke-miterlimit="10"/></g><g transform="translate(-6,-30) scale(1,1)"><g><path fill="none" stroke="none"/><text fill="#000000" stroke="none" font-family="Arial" font-size="13px" font-style="normal" font-weight="bold" text-decoration="none" x="620.082275390625" y="625.5">Irgat</text></g></g><g transform="translate(-6,-30) scale(1,1)"><path fill="#ffffff" stroke="none" d="M 1096.4093503196023 537.6800000000001 C 1096.4093503196023 532.8861679360001 1100.2951926445478 529 1105.088623046875 529 C 1109.8820534492022 529 1113.7678957741477 532.8861679360001 1113.7678957741477 537.6800000000001 C 1113.7678957741477 542.473832064 1109.8820534492022 546.36 1105.088623046875 546.36 C 1100.2951926445478 546.36 1096.4093503196023 542.473832064 1096.4093503196023 537.6800000000001 Z"/></g><g transform="translate(-6,-30) scale(1,1)"><path fill="none" stroke="#000000" d="M 1096.4093503196023 537.6800000000001 C 1096.4093503196023 532.8861679360001 1100.2951926445478 529 1105.088623046875 529 C 1109.8820534492022 529 1113.7678957741477 532.8861679360001 1113.7678957741477 537.6800000000001 C 1113.7678957741477 542.473832064 1109.8820534492022 546.36 1105.088623046875 546.36 C 1100.2951926445478 546.36 1096.4093503196023 542.473832064 1096.4093503196023 537.6800000000001 Z" stroke-miterlimit="10"/></g><g transform="translate(-6,-30) scale(1,1)"><path fill="none" stroke="#000000" d="M 1105.088623046875 546.36 L 1105.088623046875 563.64" stroke-miterlimit="10"/></g><g transform="translate(-6,-30) scale(1,1)"><path fill="none" stroke="#000000" d="M 1095.8988048650567 552.84 L 1114.2784412286933 552.84" stroke-miterlimit="10"/></g><g transform="translate(-6,-30) scale(1,1)"><path fill="none" stroke="#000000" d="M 1105.088623046875 563.64 L 1092.3249866832386 581" stroke-miterlimit="10"/></g><g transform="translate(-6,-30) scale(1,1)"><path fill="none" stroke="#000000" d="M 1105.088623046875 563.64 L 1117.8522594105114 581" stroke-miterlimit="10"/></g><g transform="translate(-6,-30) scale(1,1)"><g><path fill="none" stroke="none"/><text fill="#000000" stroke="none" font-family="Arial" font-size="13px" font-style="normal" font-weight="bold" text-decoration="none" x="1090.63818359375" y="601.5">Boss</text></g></g><g transform="translate(-6,-30) scale(1,1)"><path fill="none" stroke="#000000" d="M 659 580 L 808 515" stroke-miterlimit="10"/></g><g transform="translate(-6,-30) scale(1,1)"><path fill="none" stroke="#000000" d="M 659 586 L 767 563" stroke-miterlimit="10"/></g><g transform="translate(-6,-30) scale(1,1)"><path fill="none" stroke="#000000" d="M 659 591 L 775 592" stroke-miterlimit="10"/></g><g transform="translate(-6,-30) scale(1,1)"><path fill="none" stroke="#000000" d="M 659 597 L 775 623" stroke-miterlimit="10"/></g><g transform="translate(-6,-30) scale(1,1)"><path fill="none" stroke="#000000" d="M 659 602 L 819 671" stroke-miterlimit="10"/></g><g transform="translate(-6,-30) scale(1,1)"><path fill="none" stroke="#000000" d="M 1079 560 L 915 515" stroke-miterlimit="10"/></g><g transform="translate(-6,-30) scale(1,1)"><path fill="none" stroke="#000000" d="M 1079 565 L 939 553" stroke-miterlimit="10"/></g><g transform="translate(-6,-30) scale(1,1)"><path fill="none" stroke="#000000" d="M 1079 570 L 942 584" stroke-miterlimit="10"/></g><g transform="translate(-6,-30) scale(1,1)"><path fill="none" stroke="#000000" d="M 1079 575 L 916 623" stroke-miterlimit="10"/></g><g transform="translate(-6,-30) scale(1,1)"><path fill="none" stroke="#000000" d="M 1079 580 L 897 671" stroke-miterlimit="10"/></g><g transform="translate(-6,-30) scale(1,1)"><path fill="#C0C0C0" stroke="none" d="M 926 152 C 926 142.6111584 986.8892672 135 1062 135 C 1137.1107328 135 1198 142.6111584 1198 152 C 1198 161.3888416 1137.1107328 169 1062 169 C 986.8892672 169 926 161.3888416 926 152 Z" opacity="0.2"/></g><g transform="translate(-6,-30) scale(1,1)"><path fill="#ffffff" stroke="none" d="M 919 145 C 919 135.6111584 979.8892672 128 1055 128 C 1130.1107328 128 1191 135.6111584 1191 145 C 1191 154.3888416 1130.1107328 162 1055 162 C 979.8892672 162 919 154.3888416 919 145 Z"/></g><g transform="translate(-6,-30) scale(1,1)"><path fill="none" stroke="#000000" d="M 919 145 C 919 135.6111584 979.8892672 128 1055 128 C 1130.1107328 128 1191 135.6111584 1191 145 C 1191 154.3888416 1130.1107328 162 1055 162 C 979.8892672 162 919 154.3888416 919 145 Z" stroke-miterlimit="10"/></g><g transform="translate(-6,-30) scale(1,1)"><g><path fill="none" stroke="none"/><text fill="#000000" stroke="none" font-family="Arial" font-size="13px" font-style="normal" font-weight="bold" text-decoration="none" x="969.011474609375" y="152">9.1 View Applicants For a Job</text></g></g><g transform="translate(-6,-30) scale(1,1)"><path fill="#C0C0C0" stroke="none" d="M 962 200 C 962 190.6111584 1004.532944 183 1057 183 C 1109.467056 183 1152 190.6111584 1152 200 C 1152 209.3888416 1109.467056 217 1057 217 C 1004.532944 217 962 209.3888416 962 200 Z" opacity="0.2"/></g><g transform="translate(-6,-30) scale(1,1)"><path fill="#ffffff" stroke="none" d="M 955 193 C 955 183.6111584 997.532944 176 1050 176 C 1102.467056 176 1145 183.6111584 1145 193 C 1145 202.3888416 1102.467056 210 1050 210 C 997.532944 210 955 202.3888416 955 193 Z"/></g><g transform="translate(-6,-30) scale(1,1)"><path fill="none" stroke="#000000" d="M 955 193 C 955 183.6111584 997.532944 176 1050 176 C 1102.467056 176 1145 183.6111584 1145 193 C 1145 202.3888416 1102.467056 210 1050 210 C 997.532944 210 955 202.3888416 955 193 Z" stroke-miterlimit="10"/></g><g transform="translate(-6,-30) scale(1,1)"><g><path fill="none" stroke="none"/><text fill="#000000" stroke="none" font-family="Arial" font-size="13px" font-style="normal" font-weight="bold" text-decoration="none" x="991.465087890625" y="200">9.2 View Application</text></g></g><g transform="translate(-6,-30) scale(1,1)"><path fill="#C0C0C0" stroke="none" d="M 964 248 C 964 238.6111584 1005.6375136 231 1057 231 C 1108.3624864 231 1150 238.6111584 1150 248 C 1150 257.3888416 1108.3624864 265 1057 265 C 1005.6375136 265 964 257.3888416 964 248 Z" opacity="0.2"/></g><g transform="translate(-6,-30) scale(1,1)"><path fill="#ffffff" stroke="none" d="M 957 241 C 957 231.6111584 998.6375136 224 1050 224 C 1101.3624864 224 1143 231.6111584 1143 241 C 1143 250.3888416 1101.3624864 258 1050 258 C 998.6375136 258 957 250.3888416 957 241 Z"/></g><g transform="translate(-6,-30) scale(1,1)"><path fill="none" stroke="#000000" d="M 957 241 C 957 231.6111584 998.6375136 224 1050 224 C 1101.3624864 224 1143 231.6111584 1143 241 C 1143 250.3888416 1101.3624864 258 1050 258 C 998.6375136 258 957 250.3888416 957 241 Z" stroke-miterlimit="10"/></g><g transform="translate(-6,-30) scale(1,1)"><g><path fill="none" stroke="none"/><text fill="#000000" stroke="none" font-family="Arial" font-size="13px" font-style="normal" font-weight="bold" text-decoration="none" x="992.54736328125" y="248">9.3 Select Applicant</text></g></g><g transform="translate(-6,-30) scale(1,1)"><path fill="#C0C0C0" stroke="none" d="M 964 296 C 964 286.6111584 1005.8613712 279 1057.5 279 C 1109.1386288 279 1151 286.6111584 1151 296 C 1151 305.3888416 1109.1386288 313 1057.5 313 C 1005.8613712 313 964 305.3888416 964 296 Z" opacity="0.2"/></g><g transform="translate(-6,-30) scale(1,1)"><path fill="#ffffff" stroke="none" d="M 957 289 C 957 279.6111584 998.8613712 272 1050.5 272 C 1102.1386288 272 1144 279.6111584 1144 289 C 1144 298.3888416 1102.1386288 306 1050.5 306 C 998.8613712 306 957 298.3888416 957 289 Z"/></g><g transform="translate(-6,-30) scale(1,1)"><path fill="none" stroke="#000000" d="M 957 289 C 957 279.6111584 998.8613712 272 1050.5 272 C 1102.1386288 272 1144 279.6111584 1144 289 C 1144 298.3888416 1102.1386288 306 1050.5 306 C 998.8613712 306 957 298.3888416 957 289 Z" stroke-miterlimit="10"/></g><g transform="translate(-6,-30) scale(1,1)"><g><path fill="none" stroke="none"/><text fill="#000000" stroke="none" font-family="Arial" font-size="13px" font-style="normal" font-weight="bold" text-decoration="none" x="992.688720703125" y="296">9.4 Reject Applicant</text></g></g><g transform="translate(-6,-30) scale(1,1)"><path fill="#C0C0C0" stroke="none" d="M 966 352 C 966 342.6111584 1006.7420832 335 1057 335 C 1107.2579168 335 1148 342.6111584 1148 352 C 1148 361.3888416 1107.2579168 369 1057 369 C 1006.7420832 369 966 361.3888416 966 352 Z" opacity="0.2"/></g><g transform="translate(-6,-30) scale(1,1)"><path fill="#ffffff" stroke="none" d="M 959 345 C 959 335.6111584 999.7420832 328 1050 328 C 1100.2579168 328 1141 335.6111584 1141 345 C 1141 354.3888416 1100.2579168 362 1050 362 C 999.7420832 362 959 354.3888416 959 345 Z"/></g><g transform="translate(-6,-30) scale(1,1)"><path fill="none" stroke="#000000" d="M 959 345 C 959 335.6111584 999.7420832 328 1050 328 C 1100.2579168 328 1141 335.6111584 1141 345 C 1141 354.3888416 1100.2579168 362 1050 362 C 999.7420832 362 959 354.3888416 959 345 Z" stroke-miterlimit="10"/></g><g transform="translate(-6,-30) scale(1,1)"><g><path fill="none" stroke="none"/><text fill="#000000" stroke="none" font-family="Arial" font-size="13px" font-style="normal" font-weight="bold" text-decoration="none" x="994.71826171875" y="352">9.5 Block Applicant</text></g></g><g transform="translate(-6,-30) scale(1,1)"><path fill="#ffffff" stroke="none" d="M 1272.4093503196023 193.68 C 1272.4093503196023 188.886167936 1276.2951926445478 185 1281.088623046875 185 C 1285.8820534492022 185 1289.7678957741477 188.886167936 1289.7678957741477 193.68 C 1289.7678957741477 198.47383206400002 1285.8820534492022 202.36 1281.088623046875 202.36 C 1276.2951926445478 202.36 1272.4093503196023 198.47383206400002 1272.4093503196023 193.68 Z"/></g><g transform="translate(-6,-30) scale(1,1)"><path fill="none" stroke="#000000" d="M 1272.4093503196023 193.68 C 1272.4093503196023 188.886167936 1276.2951926445478 185 1281.088623046875 185 C 1285.8820534492022 185 1289.7678957741477 188.886167936 1289.7678957741477 193.68 C 1289.7678957741477 198.47383206400002 1285.8820534492022 202.36 1281.088623046875 202.36 C 1276.2951926445478 202.36 1272.4093503196023 198.47383206400002 1272.4093503196023 193.68 Z" stroke-miterlimit="10"/></g><g transform="translate(-6,-30) scale(1,1)"><path fill="none" stroke="#000000" d="M 1281.088623046875 202.36 L 1281.088623046875 219.64" stroke-miterlimit="10"/></g><g transform="translate(-6,-30) scale(1,1)"><path fill="none" stroke="#000000" d="M 1271.8988048650567 208.84 L 1290.2784412286933 208.84" stroke-miterlimit="10"/></g><g transform="translate(-6,-30) scale(1,1)"><path fill="none" stroke="#000000" d="M 1281.088623046875 219.64 L 1268.3249866832386 237" stroke-miterlimit="10"/></g><g transform="translate(-6,-30) scale(1,1)"><path fill="none" stroke="#000000" d="M 1281.088623046875 219.64 L 1293.8522594105114 237" stroke-miterlimit="10"/></g><g transform="translate(-6,-30) scale(1,1)"><g><path fill="none" stroke="none"/><text fill="#000000" stroke="none" font-family="Arial" font-size="13px" font-style="normal" font-weight="bold" text-decoration="none" x="1266.63818359375" y="257.5">Boss</text></g></g><g transform="translate(-6,-30) scale(1,1)"><path fill="none" stroke="#000000" d="M 1255 214 L 1107 163" stroke-miterlimit="10"/></g><g transform="translate(-6,-30) scale(1,1)"><path fill="none" stroke="#000000" d="M 1255 237 L 1084 327" stroke-miterlimit="10"/></g><g transform="translate(-6,-30) scale(1,1)"><path fill="none" stroke="#000000" d="M 1255 220 L 1146 205" stroke-miterlimit="10"/></g><g transform="translate(-6,-30) scale(1,1)"><path fill="none" stroke="#000000" d="M 1255 225 L 1144 234" stroke-miterlimit="10"/></g><g transform="translate(-6,-30) scale(1,1)"><path fill="none" stroke="#000000" d="M 1255 230 L 1113 271" stroke-miterlimit="10"/></g><g transform="translate(-6,-30) scale(1,1)"><path fill="#C0C0C0" stroke="none" d="M 1659 138 C 1659 128.6111584 1719.8892672 121 1795 121 C 1870.1107328 121 1931 128.6111584 1931 138 C 1931 147.3888416 1870.1107328 155 1795 155 C 1719.8892672 155 1659 147.3888416 1659 138 Z" opacity="0.2"/></g><g transform="translate(-6,-30) scale(1,1)"><path fill="#82abff" stroke="none" d="M 1652 131 C 1652 121.6111584 1712.8892672 114 1788 114 C 1863.1107328 114 1924 121.6111584 1924 131 C 1924 140.3888416 1863.1107328 148 1788 148 C 1712.8892672 148 1652 140.3888416 1652 131 Z"/></g><g transform="translate(-6,-30) scale(1,1)"><path fill="none" stroke="#000000" d="M 1652 131 C 1652 121.6111584 1712.8892672 114 1788 114 C 1863.1107328 114 1924 121.6111584 1924 131 C 1924 140.3888416 1863.1107328 148 1788 148 C 1712.8892672 148 1652 140.3888416 1652 131 Z" stroke-miterlimit="10"/></g><g transform="translate(-6,-30) scale(1,1)"><g><path fill="none" stroke="none"/><text fill="#000000" stroke="none" font-family="Arial" font-size="13px" font-style="normal" font-weight="bold" text-decoration="none" x="1741.3955078125" y="138">0 Administration</text></g></g><g transform="translate(-6,-30) scale(1,1)"><path fill="#C0C0C0" stroke="none" d="M 1659 186 C 1659 176.6111584 1719.8892672 169 1795 169 C 1870.1107328 169 1931 176.6111584 1931 186 C 1931 195.3888416 1870.1107328 203 1795 203 C 1719.8892672 203 1659 195.3888416 1659 186 Z" opacity="0.2"/></g><g transform="translate(-6,-30) scale(1,1)"><path fill="#ba6b6b" stroke="none" d="M 1652 179 C 1652 169.6111584 1712.8892672 162 1788 162 C 1863.1107328 162 1924 169.6111584 1924 179 C 1924 188.3888416 1863.1107328 196 1788 196 C 1712.8892672 196 1652 188.3888416 1652 179 Z"/></g><g transform="translate(-6,-30) scale(1,1)"><path fill="none" stroke="#000000" d="M 1652 179 C 1652 169.6111584 1712.8892672 162 1788 162 C 1863.1107328 162 1924 169.6111584 1924 179 C 1924 188.3888416 1863.1107328 196 1788 196 C 1712.8892672 196 1652 188.3888416 1652 179 Z" stroke-miterlimit="10"/></g><g transform="translate(-6,-30) scale(1,1)"><g><path fill="none" stroke="none"/><text fill="#000000" stroke="none" font-family="Arial" font-size="13px" font-style="normal" font-weight="bold" text-decoration="none" x="1732.353271484375" y="186">1 Job Management</text></g></g><g transform="translate(-6,-30) scale(1,1)"><path fill="#C0C0C0" stroke="none" d="M 1659 234 C 1659 224.6111584 1719.8892672 217 1795 217 C 1870.1107328 217 1931 224.6111584 1931 234 C 1931 243.3888416 1870.1107328 251 1795 251 C 1719.8892672 251 1659 243.3888416 1659 234 Z" opacity="0.2"/></g><g transform="translate(-6,-30) scale(1,1)"><path fill="#ba6b6b" stroke="none" d="M 1652 227 C 1652 217.6111584 1712.8892672 210 1788 210 C 1863.1107328 210 1924 217.6111584 1924 227 C 1924 236.3888416 1863.1107328 244 1788 244 C 1712.8892672 244 1652 236.3888416 1652 227 Z"/></g><g transform="translate(-6,-30) scale(1,1)"><path fill="none" stroke="#000000" d="M 1652 227 C 1652 217.6111584 1712.8892672 210 1788 210 C 1863.1107328 210 1924 217.6111584 1924 227 C 1924 236.3888416 1863.1107328 244 1788 244 C 1712.8892672 244 1652 236.3888416 1652 227 Z" stroke-miterlimit="10"/></g><g transform="translate(-6,-30) scale(1,1)"><g><path fill="none" stroke="none"/><text fill="#000000" stroke="none" font-family="Arial" font-size="13px" font-style="normal" font-weight="bold" text-decoration="none" x="1749.6982421875" y="234">2 Job Search</text></g></g><g transform="translate(-6,-30) scale(1,1)"><path fill="#C0C0C0" stroke="none" d="M 1659 282 C 1659 272.6111584 1719.8892672 265 1795 265 C 1870.1107328 265 1931 272.6111584 1931 282 C 1931 291.3888416 1870.1107328 299 1795 299 C 1719.8892672 299 1659 291.3888416 1659 282 Z" opacity="0.2"/></g><g transform="translate(-6,-30) scale(1,1)"><path fill="#ba6b6b" stroke="none" d="M 1652 275 C 1652 265.6111584 1712.8892672 258 1788 258 C 1863.1107328 258 1924 265.6111584 1924 275 C 1924 284.3888416 1863.1107328 292 1788 292 C 1712.8892672 292 1652 284.3888416 1652 275 Z"/></g><g transform="translate(-6,-30) scale(1,1)"><path fill="none" stroke="#000000" d="M 1652 275 C 1652 265.6111584 1712.8892672 258 1788 258 C 1863.1107328 258 1924 265.6111584 1924 275 C 1924 284.3888416 1863.1107328 292 1788 292 C 1712.8892672 292 1652 284.3888416 1652 275 Z" stroke-miterlimit="10"/></g><g transform="translate(-6,-30) scale(1,1)"><g><path fill="none" stroke="none"/><text fill="#000000" stroke="none" font-family="Arial" font-size="13px" font-style="normal" font-weight="bold" text-decoration="none" x="1711.03466796875" y="282">3 Application Management</text></g></g><g transform="translate(-6,-30) scale(1,1)"><path fill="#C0C0C0" stroke="none" d="M 1659 330 C 1659 320.6111584 1719.8892672 313 1795 313 C 1870.1107328 313 1931 320.6111584 1931 330 C 1931 339.3888416 1870.1107328 347 1795 347 C 1719.8892672 347 1659 339.3888416 1659 330 Z" opacity="0.2"/></g><g transform="translate(-6,-30) scale(1,1)"><path fill="#00ffd4" stroke="none" d="M 1652 323 C 1652 313.6111584 1712.8892672 306 1788 306 C 1863.1107328 306 1924 313.6111584 1924 323 C 1924 332.3888416 1863.1107328 340 1788 340 C 1712.8892672 340 1652 332.3888416 1652 323 Z"/></g><g transform="translate(-6,-30) scale(1,1)"><path fill="none" stroke="#000000" d="M 1652 323 C 1652 313.6111584 1712.8892672 306 1788 306 C 1863.1107328 306 1924 313.6111584 1924 323 C 1924 332.3888416 1863.1107328 340 1788 340 C 1712.8892672 340 1652 332.3888416 1652 323 Z" stroke-miterlimit="10"/></g><g transform="translate(-6,-30) scale(1,1)"><g><path fill="none" stroke="none"/><text fill="#000000" stroke="none" font-family="Arial" font-size="13px" font-style="normal" font-weight="bold" text-decoration="none" x="1751.1455078125" y="330">4 Messaging</text></g></g><g transform="translate(-6,-30) scale(1,1)"><path fill="#C0C0C0" stroke="none" d="M 1659 378 C 1659 368.6111584 1719.8892672 361 1795 361 C 1870.1107328 361 1931 368.6111584 1931 378 C 1931 387.3888416 1870.1107328 395 1795 395 C 1719.8892672 395 1659 387.3888416 1659 378 Z" opacity="0.2"/></g><g transform="translate(-6,-30) scale(1,1)"><path fill="#ba6b6b" stroke="none" d="M 1652 371 C 1652 361.6111584 1712.8892672 354 1788 354 C 1863.1107328 354 1924 361.6111584 1924 371 C 1924 380.3888416 1863.1107328 388 1788 388 C 1712.8892672 388 1652 380.3888416 1652 371 Z"/></g><g transform="translate(-6,-30) scale(1,1)"><path fill="none" stroke="#000000" d="M 1652 371 C 1652 361.6111584 1712.8892672 354 1788 354 C 1863.1107328 354 1924 361.6111584 1924 371 C 1924 380.3888416 1863.1107328 388 1788 388 C 1712.8892672 388 1652 380.3888416 1652 371 Z" stroke-miterlimit="10"/></g><g transform="translate(-6,-30) scale(1,1)"><g><path fill="none" stroke="none"/><text fill="#000000" stroke="none" font-family="Arial" font-size="13px" font-style="normal" font-weight="bold" text-decoration="none" x="1729.109619140625" y="378">5 User Management</text></g></g><g transform="translate(-6,-30) scale(1,1)"><path fill="#C0C0C0" stroke="none" d="M 1659 426 C 1659 416.6111584 1719.8892672 409 1795 409 C 1870.1107328 409 1931 416.6111584 1931 426 C 1931 435.3888416 1870.1107328 443 1795 443 C 1719.8892672 443 1659 435.3888416 1659 426 Z" opacity="0.2"/></g><g transform="translate(-6,-30) scale(1,1)"><path fill="#7fff00" stroke="none" d="M 1652 419 C 1652 409.6111584 1712.8892672 402 1788 402 C 1863.1107328 402 1924 409.6111584 1924 419 C 1924 428.3888416 1863.1107328 436 1788 436 C 1712.8892672 436 1652 428.3888416 1652 419 Z"/></g><g transform="translate(-6,-30) scale(1,1)"><path fill="none" stroke="#000000" d="M 1652 419 C 1652 409.6111584 1712.8892672 402 1788 402 C 1863.1107328 402 1924 409.6111584 1924 419 C 1924 428.3888416 1863.1107328 436 1788 436 C 1712.8892672 436 1652 428.3888416 1652 419 Z" stroke-miterlimit="10"/></g><g transform="translate(-6,-30) scale(1,1)"><g><path fill="none" stroke="none"/><text fill="#000000" stroke="none" font-family="Arial" font-size="13px" font-style="normal" font-weight="bold" text-decoration="none" x="1711.393310546875" y="426">6 Reputation Management</text></g></g><g transform="translate(-6,-30) scale(1,1)"><path fill="#C0C0C0" stroke="none" d="M 1659 570 C 1659 560.6111584 1719.8892672 553 1795 553 C 1870.1107328 553 1931 560.6111584 1931 570 C 1931 579.3888416 1870.1107328 587 1795 587 C 1719.8892672 587 1659 579.3888416 1659 570 Z" opacity="0.2"/></g><g transform="translate(-6,-30) scale(1,1)"><path fill="#ba6b6b" stroke="none" d="M 1652 563 C 1652 553.6111584 1712.8892672 546 1788 546 C 1863.1107328 546 1924 553.6111584 1924 563 C 1924 572.3888416 1863.1107328 580 1788 580 C 1712.8892672 580 1652 572.3888416 1652 563 Z"/></g><g transform="translate(-6,-30) scale(1,1)"><path fill="none" stroke="#000000" d="M 1652 563 C 1652 553.6111584 1712.8892672 546 1788 546 C 1863.1107328 546 1924 553.6111584 1924 563 C 1924 572.3888416 1863.1107328 580 1788 580 C 1712.8892672 580 1652 572.3888416 1652 563 Z" stroke-miterlimit="10"/></g><g transform="translate(-6,-30) scale(1,1)"><g><path fill="none" stroke="none"/><text fill="#000000" stroke="none" font-family="Arial" font-size="13px" font-style="normal" font-weight="bold" text-decoration="none" x="1716.09375" y="570">9 Applicant Management</text></g></g><g transform="translate(-6,-30) scale(1,1)"><path fill="#C0C0C0" stroke="none" d="M 1659 522 C 1659 512.6111584 1719.8892672 505 1795 505 C 1870.1107328 505 1931 512.6111584 1931 522 C 1931 531.3888416 1870.1107328 539 1795 539 C 1719.8892672 539 1659 531.3888416 1659 522 Z" opacity="0.2"/></g><g transform="translate(-6,-30) scale(1,1)"><path fill="#aaaaaa" stroke="none" d="M 1652 515 C 1652 505.6111584 1712.8892672 498 1788 498 C 1863.1107328 498 1924 505.6111584 1924 515 C 1924 524.3888416 1863.1107328 532 1788 532 C 1712.8892672 532 1652 524.3888416 1652 515 Z"/></g><g transform="translate(-6,-30) scale(1,1)"><path fill="none" stroke="#000000" d="M 1652 515 C 1652 505.6111584 1712.8892672 498 1788 498 C 1863.1107328 498 1924 505.6111584 1924 515 C 1924 524.3888416 1863.1107328 532 1788 532 C 1712.8892672 532 1652 524.3888416 1652 515 Z" stroke-miterlimit="10"/></g><g transform="translate(-6,-30) scale(1,1)"><g><path fill="none" stroke="none"/><text fill="#000000" stroke="none" font-family="Arial" font-size="13px" font-style="normal" font-weight="bold" text-decoration="none" x="1750.425048828125" y="522">8 Notification</text></g></g><g transform="translate(-6,-30) scale(1,1)"><path fill="#C0C0C0" stroke="none" d="M 1659 618 C 1659 608.6111584 1719.8892672 601 1795 601 C 1870.1107328 601 1931 608.6111584 1931 618 C 1931 627.3888416 1870.1107328 635 1795 635 C 1719.8892672 635 1659 627.3888416 1659 618 Z" opacity="0.2"/></g><g transform="translate(-6,-30) scale(1,1)"><path fill="#82abff" stroke="none" d="M 1652 611 C 1652 601.6111584 1712.8892672 594 1788 594 C 1863.1107328 594 1924 601.6111584 1924 611 C 1924 620.3888416 1863.1107328 628 1788 628 C 1712.8892672 628 1652 620.3888416 1652 611 Z"/></g><g transform="translate(-6,-30) scale(1,1)"><path fill="none" stroke="#000000" d="M 1652 611 C 1652 601.6111584 1712.8892672 594 1788 594 C 1863.1107328 594 1924 601.6111584 1924 611 C 1924 620.3888416 1863.1107328 628 1788 628 C 1712.8892672 628 1652 620.3888416 1652 611 Z" stroke-miterlimit="10"/></g><g transform="translate(-6,-30) scale(1,1)"><g><path fill="none" stroke="none"/><text fill="#000000" stroke="none" font-family="Arial" font-size="13px" font-style="normal" font-weight="bold" text-decoration="none" x="1720.794189453125" y="618">10 Profile Management</text></g></g><g transform="translate(-6,-30) scale(1,1)"><path fill="#C0C0C0" stroke="none" d="M 1659 474 C 1659 464.6111584 1719.8892672 457 1795 457 C 1870.1107328 457 1931 464.6111584 1931 474 C 1931 483.3888416 1870.1107328 491 1795 491 C 1719.8892672 491 1659 483.3888416 1659 474 Z" opacity="0.2"/></g><g transform="translate(-6,-30) scale(1,1)"><path fill="#ffff91" stroke="none" d="M 1652 467 C 1652 457.6111584 1712.8892672 450 1788 450 C 1863.1107328 450 1924 457.6111584 1924 467 C 1924 476.3888416 1863.1107328 484 1788 484 C 1712.8892672 484 1652 476.3888416 1652 467 Z"/></g><g transform="translate(-6,-30) scale(1,1)"><path fill="none" stroke="#000000" d="M 1652 467 C 1652 457.6111584 1712.8892672 450 1788 450 C 1863.1107328 450 1924 457.6111584 1924 467 C 1924 476.3888416 1863.1107328 484 1788 484 C 1712.8892672 484 1652 476.3888416 1652 467 Z" stroke-miterlimit="10"/></g><g transform="translate(-6,-30) scale(1,1)"><g><path fill="none" stroke="none"/><text fill="#000000" stroke="none" font-family="Arial" font-size="13px" font-style="normal" font-weight="bold" text-decoration="none" x="1747.171875" y="474">7 Irgat Search</text></g></g><g transform="translate(-6,-30) scale(1,1)"><path fill="#ffffff" stroke="none" d="M 1465.4093503196023 343.68 C 1465.4093503196023 338.886167936 1469.2951926445478 335 1474.088623046875 335 C 1478.8820534492022 335 1482.7678957741477 338.886167936 1482.7678957741477 343.68 C 1482.7678957741477 348.473832064 1478.8820534492022 352.36 1474.088623046875 352.36 C 1469.2951926445478 352.36 1465.4093503196023 348.473832064 1465.4093503196023 343.68 Z"/></g><g transform="translate(-6,-30) scale(1,1)"><path fill="none" stroke="#000000" d="M 1465.4093503196023 343.68 C 1465.4093503196023 338.886167936 1469.2951926445478 335 1474.088623046875 335 C 1478.8820534492022 335 1482.7678957741477 338.886167936 1482.7678957741477 343.68 C 1482.7678957741477 348.473832064 1478.8820534492022 352.36 1474.088623046875 352.36 C 1469.2951926445478 352.36 1465.4093503196023 348.473832064 1465.4093503196023 343.68 Z" stroke-miterlimit="10"/></g><g transform="translate(-6,-30) scale(1,1)"><path fill="none" stroke="#000000" d="M 1474.088623046875 352.36 L 1474.088623046875 369.64" stroke-miterlimit="10"/></g><g transform="translate(-6,-30) scale(1,1)"><path fill="none" stroke="#000000" d="M 1464.8988048650567 358.84 L 1483.2784412286933 358.84" stroke-miterlimit="10"/></g><g transform="translate(-6,-30) scale(1,1)"><path fill="none" stroke="#000000" d="M 1474.088623046875 369.64 L 1461.3249866832386 387" stroke-miterlimit="10"/></g><g transform="translate(-6,-30) scale(1,1)"><path fill="none" stroke="#000000" d="M 1474.088623046875 369.64 L 1486.8522594105114 387" stroke-miterlimit="10"/></g><g transform="translate(-6,-30) scale(1,1)"><g><path fill="none" stroke="none"/><text fill="#000000" stroke="none" font-family="Arial" font-size="13px" font-style="normal" font-weight="bold" text-decoration="none" x="1461.082275390625" y="407.5">Irgat</text></g></g><g transform="translate(-6,-30) scale(1,1)"><path fill="#ffffff" stroke="none" d="M 2033.409350319602 343.68 C 2033.409350319602 338.886167936 2037.2951926445476 335 2042.088623046875 335 C 2046.8820534492024 335 2050.7678957741477 338.886167936 2050.7678957741477 343.68 C 2050.7678957741477 348.473832064 2046.8820534492024 352.36 2042.088623046875 352.36 C 2037.2951926445476 352.36 2033.409350319602 348.473832064 2033.409350319602 343.68 Z"/></g><g transform="translate(-6,-30) scale(1,1)"><path fill="none" stroke="#000000" d="M 2033.409350319602 343.68 C 2033.409350319602 338.886167936 2037.2951926445476 335 2042.088623046875 335 C 2046.8820534492024 335 2050.7678957741477 338.886167936 2050.7678957741477 343.68 C 2050.7678957741477 348.473832064 2046.8820534492024 352.36 2042.088623046875 352.36 C 2037.2951926445476 352.36 2033.409350319602 348.473832064 2033.409350319602 343.68 Z" stroke-miterlimit="10"/></g><g transform="translate(-6,-30) scale(1,1)"><path fill="none" stroke="#000000" d="M 2042.088623046875 352.36 L 2042.088623046875 369.64" stroke-miterlimit="10"/></g><g transform="translate(-6,-30) scale(1,1)"><path fill="none" stroke="#000000" d="M 2032.8988048650567 358.84 L 2051.2784412286933 358.84" stroke-miterlimit="10"/></g><g transform="translate(-6,-30) scale(1,1)"><path fill="none" stroke="#000000" d="M 2042.088623046875 369.64 L 2029.3249866832384 387" stroke-miterlimit="10"/></g><g transform="translate(-6,-30) scale(1,1)"><path fill="none" stroke="#000000" d="M 2042.088623046875 369.64 L 2054.8522594105116 387" stroke-miterlimit="10"/></g><g transform="translate(-6,-30) scale(1,1)"><g><path fill="none" stroke="none"/><text fill="#000000" stroke="none" font-family="Arial" font-size="13px" font-style="normal" font-weight="bold" text-decoration="none" x="2027.63818359375" y="407.5">Boss</text></g></g><g transform="translate(-6,-30) scale(1,1)"><path fill="#ffffff" stroke="none" d="M 2025.4093503196023 99.68 C 2025.4093503196023 94.886167936 2029.2951926445478 91 2034.088623046875 91 C 2038.8820534492022 91 2042.7678957741477 94.886167936 2042.7678957741477 99.68 C 2042.7678957741477 104.473832064 2038.8820534492022 108.36 2034.088623046875 108.36 C 2029.2951926445478 108.36 2025.4093503196023 104.473832064 2025.4093503196023 99.68 Z"/></g><g transform="translate(-6,-30) scale(1,1)"><path fill="none" stroke="#000000" d="M 2025.4093503196023 99.68 C 2025.4093503196023 94.886167936 2029.2951926445478 91 2034.088623046875 91 C 2038.8820534492022 91 2042.7678957741477 94.886167936 2042.7678957741477 99.68 C 2042.7678957741477 104.473832064 2038.8820534492022 108.36 2034.088623046875 108.36 C 2029.2951926445478 108.36 2025.4093503196023 104.473832064 2025.4093503196023 99.68 Z" stroke-miterlimit="10"/></g><g transform="translate(-6,-30) scale(1,1)"><path fill="none" stroke="#000000" d="M 2034.088623046875 108.36 L 2034.088623046875 125.64" stroke-miterlimit="10"/></g><g transform="translate(-6,-30) scale(1,1)"><path fill="none" stroke="#000000" d="M 2024.8988048650567 114.84 L 2043.2784412286933 114.84" stroke-miterlimit="10"/></g><g transform="translate(-6,-30) scale(1,1)"><path fill="none" stroke="#000000" d="M 2034.088623046875 125.64 L 2021.3249866832386 143" stroke-miterlimit="10"/></g><g transform="translate(-6,-30) scale(1,1)"><path fill="none" stroke="#000000" d="M 2034.088623046875 125.64 L 2046.8522594105114 143" stroke-miterlimit="10"/></g><g transform="translate(-6,-30) scale(1,1)"><g><path fill="none" stroke="none"/><text fill="#000000" stroke="none" font-family="Arial" font-size="13px" font-style="normal" font-weight="bold" text-decoration="none" x="2015.66455078125" y="163.5">Admin</text></g></g><g transform="translate(-6,-30) scale(1,1)"><path fill="none" stroke="#000000" d="M 2008 129 L 1925 130" stroke-miterlimit="10"/></g><g transform="translate(-6,-30) scale(1,1)"><path fill="none" stroke="#000000" d="M 2016 353 L 1812 197" stroke-miterlimit="10"/></g><g transform="translate(-6,-30) scale(1,1)"><path fill="none" stroke="#000000" d="M 2016 368 L 1879 341" stroke-miterlimit="10"/></g><g transform="translate(-6,-30) scale(1,1)"><path fill="none" stroke="#000000" d="M 2016 373 L 1925 372" stroke-miterlimit="10"/></g><g transform="translate(-6,-30) scale(1,1)"><path fill="none" stroke="#000000" d="M 2016 378 L 1887 401" stroke-miterlimit="10"/></g><g transform="translate(-6,-30) scale(1,1)"><path fill="none" stroke="#000000" d="M 2016 383 L 1837 449" stroke-miterlimit="10"/></g><g transform="translate(-6,-30) scale(1,1)"><path fill="none" stroke="#000000" d="M 2016 392 L 1812 545" stroke-miterlimit="10"/></g><g transform="translate(-6,-30) scale(1,1)"><path fill="none" stroke="#000000" d="M 2016 397 L 1807 593" stroke-miterlimit="10"/></g><g transform="translate(-6,-30) scale(1,1)"><path fill="none" stroke="#000000" d="M 1500 361 L 1749 245" stroke-miterlimit="10"/></g><g transform="translate(-6,-30) scale(1,1)"><path fill="none" stroke="#000000" d="M 1500 393 L 1764 593" stroke-miterlimit="10"/></g><g transform="translate(-6,-30) scale(1,1)"><path fill="none" stroke="#000000" d="M 1500 365 L 1730 293" stroke-miterlimit="10"/></g><g transform="translate(-6,-30) scale(1,1)"><path fill="none" stroke="#000000" d="M 1500 369 L 1675 341" stroke-miterlimit="10"/></g><g transform="translate(-6,-30) scale(1,1)"><path fill="none" stroke="#000000" d="M 1500 373 L 1651 372" stroke-miterlimit="10"/></g><g transform="translate(-6,-30) scale(1,1)"><path fill="none" stroke="#000000" d="M 1500 377 L 1665 401" stroke-miterlimit="10"/></g><g transform="translate(-6,-30) scale(1,1)"><path fill="none" stroke="#000000" d="M 1500 385 L 1748 497" stroke-miterlimit="10"/></g><g transform="translate(-6,-30) scale(1,1)"><path fill="#ffffff" stroke="none" d="M 2008 544 L 2261 544 L 2271 554 L 2271 631 L 2008 631 L 2008 544"/></g><g transform="translate(-6,-30) scale(1,1)"><path fill="none" stroke="#000000" d="M 2008 544 L 2261 544 L 2271 554 L 2271 631 L 2008 631 L 2008 544 L 2008 544" stroke-miterlimit="10"/></g><g transform="translate(-6,-30) scale(1,1)"><path fill="none" stroke="#000000" d="M 2261 544 L 2261 554 L 2271 554 L 2261 544" stroke-miterlimit="10"/></g><g transform="translate(-6,-30) scale(1,1)"><g><path fill="none" stroke="none"/><text fill="#000000" stroke="none" font-family="Arial" font-size="13px" font-style="normal" font-weight="normal" text-decoration="none" x="2013" y="562">Profile Management (priority: 2): Allow</text><text fill="#000000" stroke="none" font-family="Arial" font-size="13px" font-style="normal" font-weight="normal" text-decoration="none" x="2013" y="575">users to create their own profiles however</text><text fill="#000000" stroke="none" font-family="Arial" font-size="13px" font-style="normal" font-weight="normal" text-decoration="none" x="2013" y="588">they want people to see their profiles. They</text><text fill="#000000" stroke="none" font-family="Arial" font-size="13px" font-style="normal" font-weight="normal" text-decoration="none" x="2013" y="601">can add information about their jobs or</text><text fill="#000000" stroke="none" font-family="Arial" font-size="13px" font-style="normal" font-weight="normal" text-decoration="none" x="2013" y="614">skills.</text></g></g><g transform="translate(-6,-30) scale(1,1)"><path fill="#ffffff" stroke="none" d="M 1424 128 L 1569.44580078125 128 L 1579.44580078125 138 L 1579.44580078125 191 L 1424 191 L 1424 128"/></g><g transform="translate(-6,-30) scale(1,1)"><path fill="none" stroke="#000000" d="M 1424 128 L 1569.44580078125 128 L 1579.44580078125 138 L 1579.44580078125 191 L 1424 191 L 1424 128 L 1424 128" stroke-miterlimit="10"/></g><g transform="translate(-6,-30) scale(1,1)"><path fill="none" stroke="#000000" d="M 1569.44580078125 128 L 1569.44580078125 138 L 1579.44580078125 138 L 1569.44580078125 128" stroke-miterlimit="10"/></g><g transform="translate(-6,-30) scale(1,1)"><g><path fill="none" stroke="none"/><text fill="#000000" stroke="none" font-family="Arial" font-size="13px" font-style="normal" font-weight="normal" text-decoration="none" x="1429" y="146">Administration (priority:</text><text fill="#000000" stroke="none" font-family="Arial" font-size="13px" font-style="normal" font-weight="normal" text-decoration="none" x="1429" y="159">2): Manage the whole</text><text fill="#000000" stroke="none" font-family="Arial" font-size="13px" font-style="normal" font-weight="normal" text-decoration="none" x="1429" y="172">system</text></g></g><g transform="translate(-6,-30) scale(1,1)"><path fill="none" stroke="#000000" d="M 1581 152 L 1651 145" stroke-miterlimit="10" stroke-dasharray="3"/></g><g transform="translate(-6,-30) scale(1,1)"><path fill="none" stroke="#000000" d="M 2007 597 L 1925 602" stroke-miterlimit="10" stroke-dasharray="3"/></g><g transform="translate(-6,-30) scale(1,1)"><path fill="#ffffff" stroke="none" d="M 1472 576 L 1588.64990234375 576 L 1598.64990234375 586 L 1598.64990234375 679 L 1472 679 L 1472 576"/></g><g transform="translate(-6,-30) scale(1,1)"><path fill="none" stroke="#000000" d="M 1472 576 L 1588.64990234375 576 L 1598.64990234375 586 L 1598.64990234375 679 L 1472 679 L 1472 576 L 1472 576" stroke-miterlimit="10"/></g><g transform="translate(-6,-30) scale(1,1)"><path fill="none" stroke="#000000" d="M 1588.64990234375 576 L 1588.64990234375 586 L 1598.64990234375 586 L 1588.64990234375 576" stroke-miterlimit="10"/></g><g transform="translate(-6,-30) scale(1,1)"><g><path fill="none" stroke="none"/><text fill="#000000" stroke="none" font-family="Arial" font-size="13px" font-style="normal" font-weight="normal" text-decoration="none" x="1477" y="594">Notification (priority</text><text fill="#000000" stroke="none" font-family="Arial" font-size="13px" font-style="normal" font-weight="normal" text-decoration="none" x="1477" y="607">: 6) : Set</text><text fill="#000000" stroke="none" font-family="Arial" font-size="13px" font-style="normal" font-weight="normal" text-decoration="none" x="1477" y="620">notifications for new</text><text fill="#000000" stroke="none" font-family="Arial" font-size="13px" font-style="normal" font-weight="normal" text-decoration="none" x="1477" y="633">jobs by criteria.</text><text fill="#000000" stroke="none" font-family="Arial" font-size="13px" font-style="normal" font-weight="normal" text-decoration="none" x="1477" y="646">Manage notification</text><text fill="#000000" stroke="none" font-family="Arial" font-size="13px" font-style="normal" font-weight="normal" text-decoration="none" x="1477" y="659">settings. etc.</text></g></g><g transform="translate(-6,-30) scale(1,1)"><g><path fill="none" stroke="none"/></g></g><g transform="translate(-6,-30) scale(1,1)"><path fill="none" stroke="#000000" d="M 1601 599 L 1748 533" stroke-miterlimit="10" stroke-dasharray="3"/></g><g transform="translate(-6,-30) scale(1,1)"><path fill="#ffffff" stroke="none" d="M 2048 440 L 2229 440 L 2239 450 L 2239 495 L 2048 495 L 2048 440"/></g><g transform="translate(-6,-30) scale(1,1)"><path fill="none" stroke="#000000" d="M 2048 440 L 2229 440 L 2239 450 L 2239 495 L 2048 495 L 2048 440 L 2048 440" stroke-miterlimit="10"/></g><g transform="translate(-6,-30) scale(1,1)"><path fill="none" stroke="#000000" d="M 2229 440 L 2229 450 L 2239 450 L 2229 440" stroke-miterlimit="10"/></g><g transform="translate(-6,-30) scale(1,1)"><g><path fill="none" stroke="none"/><text fill="#000000" stroke="none" font-family="Arial" font-size="13px" font-style="normal" font-weight="normal" text-decoration="none" x="2053" y="458">Irgat Search (priority :5) :</text><text fill="#000000" stroke="none" font-family="Arial" font-size="13px" font-style="normal" font-weight="normal" text-decoration="none" x="2053" y="471">Search for Irgas by given</text><text fill="#000000" stroke="none" font-family="Arial" font-size="13px" font-style="normal" font-weight="normal" text-decoration="none" x="2053" y="484">criteria.</text></g></g><g transform="translate(-6,-30) scale(1,1)"><path fill="none" stroke="#000000" d="M 1925 467 L 2047 468" stroke-miterlimit="10" stroke-dasharray="3"/></g><g transform="translate(-6,-30) scale(1,1)"><path fill="#ffffff" stroke="none" d="M 1360 472 L 1549 472 L 1559 482 L 1559 547 L 1360 547 L 1360 472"/></g><g transform="translate(-6,-30) scale(1,1)"><path fill="none" stroke="#000000" d="M 1360 472 L 1549 472 L 1559 482 L 1559 547 L 1360 547 L 1360 472 L 1360 472" stroke-miterlimit="10"/></g><g transform="translate(-6,-30) scale(1,1)"><path fill="none" stroke="#000000" d="M 1549 472 L 1549 482 L 1559 482 L 1549 472" stroke-miterlimit="10"/></g><g transform="translate(-6,-30) scale(1,1)"><g><path fill="none" stroke="none"/><text fill="#000000" stroke="none" font-family="Arial" font-size="13px" font-style="normal" font-weight="normal" text-decoration="none" x="1365" y="490">Reputation Management</text><text fill="#000000" stroke="none" font-family="Arial" font-size="13px" font-style="normal" font-weight="normal" text-decoration="none" x="1365" y="503">(priority: 4) : Manage the</text><text fill="#000000" stroke="none" font-family="Arial" font-size="13px" font-style="normal" font-weight="normal" text-decoration="none" x="1365" y="516">credibility of Irgats and Bosses</text><text fill="#000000" stroke="none" font-family="Arial" font-size="13px" font-style="normal" font-weight="normal" text-decoration="none" x="1365" y="529">in the system. References,</text><text fill="#000000" stroke="none" font-family="Arial" font-size="13px" font-style="normal" font-weight="normal" text-decoration="none" x="1365" y="542">approved skills, etc.</text></g></g><g transform="translate(-6,-30) scale(1,1)"><path fill="none" stroke="#000000" d="M 1723 437 L 1561 482" stroke-miterlimit="10" stroke-dasharray="3"/></g><g transform="translate(-6,-30) scale(1,1)"><path fill="#ffffff" stroke="none" d="M 2048 200 L 2221 200 L 2231 210 L 2231 287 L 2048 287 L 2048 200"/></g><g transform="translate(-6,-30) scale(1,1)"><path fill="none" stroke="#000000" d="M 2048 200 L 2221 200 L 2231 210 L 2231 287 L 2048 287 L 2048 200 L 2048 200" stroke-miterlimit="10"/></g><g transform="translate(-6,-30) scale(1,1)"><path fill="none" stroke="#000000" d="M 2221 200 L 2221 210 L 2231 210 L 2221 200" stroke-miterlimit="10"/></g><g transform="translate(-6,-30) scale(1,1)"><g><path fill="none" stroke="none"/><text fill="#000000" stroke="none" font-family="Arial" font-size="13px" font-style="normal" font-weight="normal" text-decoration="none" x="2053" y="218">Messaging (priority : 3) :</text><text fill="#000000" stroke="none" font-family="Arial" font-size="13px" font-style="normal" font-weight="normal" text-decoration="none" x="2053" y="231">Allow users to send and</text><text fill="#000000" stroke="none" font-family="Arial" font-size="13px" font-style="normal" font-weight="normal" text-decoration="none" x="2053" y="244">receive messages. Block</text><text fill="#000000" stroke="none" font-family="Arial" font-size="13px" font-style="normal" font-weight="normal" text-decoration="none" x="2053" y="257">messages from specific</text><text fill="#000000" stroke="none" font-family="Arial" font-size="13px" font-style="normal" font-weight="normal" text-decoration="none" x="2053" y="270">users, etc.</text></g></g><g transform="translate(-6,-30) scale(1,1)"><g><path fill="none" stroke="none"/></g></g><g transform="translate(-6,-30) scale(1,1)"><path fill="none" stroke="#000000" d="M 2047 265 L 1868 305" stroke-miterlimit="10" stroke-dasharray="3"/></g><g transform="translate(-6,-30) scale(1,1)"><path fill="#ffffff" stroke="none" d="M 40 160 L 98 160 L 108 170 L 108 248 L 40 248 L 40 160"/></g><g transform="translate(-6,-30) scale(1,1)"><path fill="none" stroke="#000000" d="M 40 160 L 98 160 L 108 170 L 108 248 L 40 248 L 40 160 L 40 160" stroke-miterlimit="10"/></g><g transform="translate(-6,-30) scale(1,1)"><path fill="none" stroke="#000000" d="M 98 160 L 98 170 L 108 170 L 98 160" stroke-miterlimit="10"/></g><g transform="translate(-6,-30) scale(1,1)"><g><path fill="none" stroke="none"/><text fill="#000000" stroke="none" font-family="Arial" font-size="13px" font-style="normal" font-weight="normal" text-decoration="none" x="45" y="178">view job</text><text fill="#000000" stroke="none" font-family="Arial" font-size="13px" font-style="normal" font-weight="normal" text-decoration="none" x="45" y="191">details,</text><text fill="#000000" stroke="none" font-family="Arial" font-size="13px" font-style="normal" font-weight="normal" text-decoration="none" x="45" y="204">view</text><text fill="#000000" stroke="none" font-family="Arial" font-size="13px" font-style="normal" font-weight="normal" text-decoration="none" x="45" y="217">current</text><text fill="#000000" stroke="none" font-family="Arial" font-size="13px" font-style="normal" font-weight="normal" text-decoration="none" x="45" y="230">and old</text><text fill="#000000" stroke="none" font-family="Arial" font-size="13px" font-style="normal" font-weight="normal" text-decoration="none" x="45" y="243">jobs</text></g></g><g transform="translate(-6,-30) scale(1,1)"><path fill="#ffffff" stroke="none" d="M 40 280 L 98 280 L 108 290 L 108 381 L 40 381 L 40 280"/></g><g transform="translate(-6,-30) scale(1,1)"><path fill="none" stroke="#000000" d="M 40 280 L 98 280 L 108 290 L 108 381 L 40 381 L 40 280 L 40 280" stroke-miterlimit="10"/></g><g transform="translate(-6,-30) scale(1,1)"><path fill="none" stroke="#000000" d="M 98 280 L 98 290 L 108 290 L 98 280" stroke-miterlimit="10"/></g><g transform="translate(-6,-30) scale(1,1)"><g><path fill="none" stroke="none"/><text fill="#000000" stroke="none" font-family="Arial" font-size="13px" font-style="normal" font-weight="normal" text-decoration="none" x="45" y="298">edit job,</text><text fill="#000000" stroke="none" font-family="Arial" font-size="13px" font-style="normal" font-weight="normal" text-decoration="none" x="45" y="311">change</text><text fill="#000000" stroke="none" font-family="Arial" font-size="13px" font-style="normal" font-weight="normal" text-decoration="none" x="45" y="324">job,</text><text fill="#000000" stroke="none" font-family="Arial" font-size="13px" font-style="normal" font-weight="normal" text-decoration="none" x="45" y="337">cancel</text><text fill="#000000" stroke="none" font-family="Arial" font-size="13px" font-style="normal" font-weight="normal" text-decoration="none" x="45" y="350">job,</text><text fill="#000000" stroke="none" font-family="Arial" font-size="13px" font-style="normal" font-weight="normal" text-decoration="none" x="45" y="363">delete job</text></g></g><g transform="translate(-6,-30) scale(1,1)"><path fill="none" stroke="#000000" d="M 110 320 L 186 298" stroke-miterlimit="10" stroke-dasharray="3"/></g><g transform="translate(-6,-30) scale(1,1)"><path fill="none" stroke="#000000" d="M 110 210 L 178 222" stroke-miterlimit="10" stroke-dasharray="3"/></g><g transform="translate(-6,-30) scale(1,1)"><path fill="#ffffff" stroke="none" d="M 56 88 L 114 88 L 124 98 L 124 137 L 56 137 L 56 88"/></g><g transform="translate(-6,-30) scale(1,1)"><path fill="none" stroke="#000000" d="M 56 88 L 114 88 L 124 98 L 124 137 L 56 137 L 56 88 L 56 88" stroke-miterlimit="10"/></g><g transform="translate(-6,-30) scale(1,1)"><path fill="none" stroke="#000000" d="M 114 88 L 114 98 L 124 98 L 114 88" stroke-miterlimit="10"/></g><g transform="translate(-6,-30) scale(1,1)"><g><path fill="none" stroke="none"/><text fill="#000000" stroke="none" font-family="Arial" font-size="13px" font-style="normal" font-weight="normal" text-decoration="none" x="61" y="106">repost</text><text fill="#000000" stroke="none" font-family="Arial" font-size="13px" font-style="normal" font-weight="normal" text-decoration="none" x="61" y="119">previous</text><text fill="#000000" stroke="none" font-family="Arial" font-size="13px" font-style="normal" font-weight="normal" text-decoration="none" x="61" y="132">job</text></g></g><g transform="translate(-6,-30) scale(1,1)"><path fill="none" stroke="#000000" d="M 126 130 L 206 167" stroke-miterlimit="10" stroke-dasharray="3"/></g><g transform="translate(-6,-30) scale(1,1)"><path fill="#ffffff" stroke="none" d="M 400 400 L 476.65625 400 L 486.65625 410 L 486.65625 488 L 400 488 L 400 400"/></g><g transform="translate(-6,-30) scale(1,1)"><path fill="none" stroke="#000000" d="M 400 400 L 476.65625 400 L 486.65625 410 L 486.65625 488 L 400 488 L 400 400 L 400 400" stroke-miterlimit="10"/></g><g transform="translate(-6,-30) scale(1,1)"><path fill="none" stroke="#000000" d="M 476.65625 400 L 476.65625 410 L 486.65625 410 L 476.65625 400" stroke-miterlimit="10"/></g><g transform="translate(-6,-30) scale(1,1)"><g><path fill="none" stroke="none"/><text fill="#000000" stroke="none" font-family="Arial" font-size="13px" font-style="normal" font-weight="normal" text-decoration="none" x="405" y="418">details, view</text><text fill="#000000" stroke="none" font-family="Arial" font-size="13px" font-style="normal" font-weight="normal" text-decoration="none" x="405" y="431">current</text><text fill="#000000" stroke="none" font-family="Arial" font-size="13px" font-style="normal" font-weight="normal" text-decoration="none" x="405" y="444">applications</text><text fill="#000000" stroke="none" font-family="Arial" font-size="13px" font-style="normal" font-weight="normal" text-decoration="none" x="405" y="457">and old</text><text fill="#000000" stroke="none" font-family="Arial" font-size="13px" font-style="normal" font-weight="normal" text-decoration="none" x="405" y="470">applications</text></g></g><g transform="translate(-6,-30) scale(1,1)"><path fill="none" stroke="#000000" d="M 399 475 L 278 559" stroke-miterlimit="10" stroke-dasharray="3"/></g><g transform="translate(-6,-30) scale(1,1)"><path fill="#ffffff" stroke="none" d="M 400 664 L 473.76806640625 664 L 483.76806640625 674 L 483.76806640625 778 L 400 778 L 400 664"/></g><g transform="translate(-6,-30) scale(1,1)"><path fill="none" stroke="#000000" d="M 400 664 L 473.76806640625 664 L 483.76806640625 674 L 483.76806640625 778 L 400 778 L 400 664 L 400 664" stroke-miterlimit="10"/></g><g transform="translate(-6,-30) scale(1,1)"><path fill="none" stroke="#000000" d="M 473.76806640625 664 L 473.76806640625 674 L 483.76806640625 674 L 473.76806640625 664" stroke-miterlimit="10"/></g><g transform="translate(-6,-30) scale(1,1)"><g><path fill="none" stroke="none"/><text fill="#000000" stroke="none" font-family="Arial" font-size="13px" font-style="normal" font-weight="normal" text-decoration="none" x="405" y="682">edit</text><text fill="#000000" stroke="none" font-family="Arial" font-size="13px" font-style="normal" font-weight="normal" text-decoration="none" x="405" y="695">application,</text><text fill="#000000" stroke="none" font-family="Arial" font-size="13px" font-style="normal" font-weight="normal" text-decoration="none" x="405" y="708">change</text><text fill="#000000" stroke="none" font-family="Arial" font-size="13px" font-style="normal" font-weight="normal" text-decoration="none" x="405" y="721">application,</text><text fill="#000000" stroke="none" font-family="Arial" font-size="13px" font-style="normal" font-weight="normal" text-decoration="none" x="405" y="734">cancel</text><text fill="#000000" stroke="none" font-family="Arial" font-size="13px" font-style="normal" font-weight="normal" text-decoration="none" x="405" y="747">application,</text><text fill="#000000" stroke="none" font-family="Arial" font-size="13px" font-style="normal" font-weight="normal" text-decoration="none" x="405" y="760">delete</text><text fill="#000000" stroke="none" font-family="Arial" font-size="13px" font-style="normal" font-weight="normal" text-decoration="none" x="405" y="773">application</text></g></g><g transform="translate(-6,-30) scale(1,1)"><path fill="none" stroke="#000000" d="M 399 699 L 287 643" stroke-miterlimit="10" stroke-dasharray="3"/></g><g transform="translate(-6,-30) scale(1,1)"><path fill="#ffffff" stroke="none" d="M 592 440 L 650 440 L 660 450 L 660 478 L 592 478 L 592 440"/></g><g transform="translate(-6,-30) scale(1,1)"><path fill="none" stroke="#000000" d="M 592 440 L 650 440 L 660 450 L 660 478 L 592 478 L 592 440 L 592 440" stroke-miterlimit="10"/></g><g transform="translate(-6,-30) scale(1,1)"><path fill="none" stroke="#000000" d="M 650 440 L 650 450 L 660 450 L 650 440" stroke-miterlimit="10"/></g><g transform="translate(-6,-30) scale(1,1)"><g><path fill="none" stroke="none"/><text fill="#000000" stroke="none" font-family="Arial" font-size="13px" font-style="normal" font-weight="normal" text-decoration="none" x="597" y="458">sign up</text></g></g><g transform="translate(-6,-30) scale(1,1)"><path fill="none" stroke="#000000" d="M 662 465 L 775 484" stroke-miterlimit="10" stroke-dasharray="3"/></g><g transform="translate(-6,-30) scale(1,1)"><path fill="#ffffff" stroke="none" d="M 496 488 L 584.208984375 488 L 594.208984375 498 L 594.208984375 628 L 496 628 L 496 488"/></g><g transform="translate(-6,-30) scale(1,1)"><path fill="none" stroke="#000000" d="M 496 488 L 584.208984375 488 L 594.208984375 498 L 594.208984375 628 L 496 628 L 496 488 L 496 488" stroke-miterlimit="10"/></g><g transform="translate(-6,-30) scale(1,1)"><path fill="none" stroke="#000000" d="M 584.208984375 488 L 584.208984375 498 L 594.208984375 498 L 584.208984375 488" stroke-miterlimit="10"/></g><g transform="translate(-6,-30) scale(1,1)"><g><path fill="none" stroke="none"/><text fill="#000000" stroke="none" font-family="Arial" font-size="13px" font-style="normal" font-weight="normal" text-decoration="none" x="501" y="506">can view</text><text fill="#000000" stroke="none" font-family="Arial" font-size="13px" font-style="normal" font-weight="normal" text-decoration="none" x="501" y="519">personal</text><text fill="#000000" stroke="none" font-family="Arial" font-size="13px" font-style="normal" font-weight="normal" text-decoration="none" x="501" y="532">informations</text><text fill="#000000" stroke="none" font-family="Arial" font-size="13px" font-style="normal" font-weight="normal" text-decoration="none" x="501" y="545">such as</text><text fill="#000000" stroke="none" font-family="Arial" font-size="13px" font-style="normal" font-weight="normal" text-decoration="none" x="501" y="558">address,</text><text fill="#000000" stroke="none" font-family="Arial" font-size="13px" font-style="normal" font-weight="normal" text-decoration="none" x="501" y="571">comunication,</text><text fill="#000000" stroke="none" font-family="Arial" font-size="13px" font-style="normal" font-weight="normal" text-decoration="none" x="501" y="584">email, phone</text><text fill="#000000" stroke="none" font-family="Arial" font-size="13px" font-style="normal" font-weight="normal" text-decoration="none" x="501" y="597">etc.</text></g></g><g transform="translate(-6,-30) scale(1,1)"><path fill="none" stroke="#000000" d="M 596 556 L 767 549" stroke-miterlimit="10" stroke-dasharray="3"/></g><g transform="translate(-6,-30) scale(1,1)"><path fill="#ffffff" stroke="none" d="M 1064 664 L 1131.26171875 664 L 1141.26171875 674 L 1141.26171875 817 L 1064 817 L 1064 664"/></g><g transform="translate(-6,-30) scale(1,1)"><path fill="none" stroke="#000000" d="M 1064 664 L 1131.26171875 664 L 1141.26171875 674 L 1141.26171875 817 L 1064 817 L 1064 664 L 1064 664" stroke-miterlimit="10"/></g><g transform="translate(-6,-30) scale(1,1)"><path fill="none" stroke="#000000" d="M 1131.26171875 664 L 1131.26171875 674 L 1141.26171875 674 L 1131.26171875 664" stroke-miterlimit="10"/></g><g transform="translate(-6,-30) scale(1,1)"><g><path fill="none" stroke="none"/><text fill="#000000" stroke="none" font-family="Arial" font-size="13px" font-style="normal" font-weight="normal" text-decoration="none" x="1069" y="682">update</text><text fill="#000000" stroke="none" font-family="Arial" font-size="13px" font-style="normal" font-weight="normal" text-decoration="none" x="1069" y="695">email,</text><text fill="#000000" stroke="none" font-family="Arial" font-size="13px" font-style="normal" font-weight="normal" text-decoration="none" x="1069" y="708">update</text><text fill="#000000" stroke="none" font-family="Arial" font-size="13px" font-style="normal" font-weight="normal" text-decoration="none" x="1069" y="721">password,</text><text fill="#000000" stroke="none" font-family="Arial" font-size="13px" font-style="normal" font-weight="normal" text-decoration="none" x="1069" y="734">reset</text><text fill="#000000" stroke="none" font-family="Arial" font-size="13px" font-style="normal" font-weight="normal" text-decoration="none" x="1069" y="747">password,</text><text fill="#000000" stroke="none" font-family="Arial" font-size="13px" font-style="normal" font-weight="normal" text-decoration="none" x="1069" y="760">deactivate</text><text fill="#000000" stroke="none" font-family="Arial" font-size="13px" font-style="normal" font-weight="normal" text-decoration="none" x="1069" y="773">account,</text><text fill="#000000" stroke="none" font-family="Arial" font-size="13px" font-style="normal" font-weight="normal" text-decoration="none" x="1069" y="786">activate</text><text fill="#000000" stroke="none" font-family="Arial" font-size="13px" font-style="normal" font-weight="normal" text-decoration="none" x="1069" y="799">account,</text><text fill="#000000" stroke="none" font-family="Arial" font-size="13px" font-style="normal" font-weight="normal" text-decoration="none" x="1069" y="812">login</text></g></g><g transform="translate(-6,-30) scale(1,1)"><path fill="none" stroke="#000000" d="M 1063 732 L 945 707" stroke-miterlimit="10" stroke-dasharray="3"/></g><g transform="translate(-6,-30) scale(1,1)"><path fill="#ffffff" stroke="none" d="M 584 680 L 664.26171875 680 L 674.26171875 690 L 674.26171875 833 L 584 833 L 584 680"/></g><g transform="translate(-6,-30) scale(1,1)"><path fill="none" stroke="#000000" d="M 584 680 L 664.26171875 680 L 674.26171875 690 L 674.26171875 833 L 584 833 L 584 680 L 584 680" stroke-miterlimit="10"/></g><g transform="translate(-6,-30) scale(1,1)"><path fill="none" stroke="#000000" d="M 664.26171875 680 L 664.26171875 690 L 674.26171875 690 L 664.26171875 680" stroke-miterlimit="10"/></g><g transform="translate(-6,-30) scale(1,1)"><g><path fill="none" stroke="none"/><text fill="#000000" stroke="none" font-family="Arial" font-size="13px" font-style="normal" font-weight="normal" text-decoration="none" x="589" y="698">users can</text><text fill="#000000" stroke="none" font-family="Arial" font-size="13px" font-style="normal" font-weight="normal" text-decoration="none" x="589" y="711">manage their</text><text fill="#000000" stroke="none" font-family="Arial" font-size="13px" font-style="normal" font-weight="normal" text-decoration="none" x="589" y="724">preferances</text><text fill="#000000" stroke="none" font-family="Arial" font-size="13px" font-style="normal" font-weight="normal" text-decoration="none" x="589" y="737">about the</text><text fill="#000000" stroke="none" font-family="Arial" font-size="13px" font-style="normal" font-weight="normal" text-decoration="none" x="589" y="750">system. such</text><text fill="#000000" stroke="none" font-family="Arial" font-size="13px" font-style="normal" font-weight="normal" text-decoration="none" x="589" y="763">as notification</text><text fill="#000000" stroke="none" font-family="Arial" font-size="13px" font-style="normal" font-weight="normal" text-decoration="none" x="589" y="776">preferances,</text><text fill="#000000" stroke="none" font-family="Arial" font-size="13px" font-style="normal" font-weight="normal" text-decoration="none" x="589" y="789">visual pref.,</text><text fill="#000000" stroke="none" font-family="Arial" font-size="13px" font-style="normal" font-weight="normal" text-decoration="none" x="589" y="802">block users</text></g></g><g transform="translate(-6,-30) scale(1,1)"><path fill="none" stroke="#000000" d="M 676 733 L 820 659" stroke-miterlimit="10" stroke-dasharray="3"/></g><g transform="translate(-6,-30) scale(1,1)"><path fill="#ffffff" stroke="none" d="M 1248 40 L 1320.30810546875 40 L 1330.30810546875 50 L 1330.30810546875 141 L 1248 141 L 1248 40"/></g><g transform="translate(-6,-30) scale(1,1)"><path fill="none" stroke="#000000" d="M 1248 40 L 1320.30810546875 40 L 1330.30810546875 50 L 1330.30810546875 141 L 1248 141 L 1248 40 L 1248 40" stroke-miterlimit="10"/></g><g transform="translate(-6,-30) scale(1,1)"><path fill="none" stroke="#000000" d="M 1320.30810546875 40 L 1320.30810546875 50 L 1330.30810546875 50 L 1320.30810546875 40" stroke-miterlimit="10"/></g><g transform="translate(-6,-30) scale(1,1)"><g><path fill="none" stroke="none"/><text fill="#000000" stroke="none" font-family="Arial" font-size="13px" font-style="normal" font-weight="normal" text-decoration="none" x="1253" y="58">Irgat's</text><text fill="#000000" stroke="none" font-family="Arial" font-size="13px" font-style="normal" font-weight="normal" text-decoration="none" x="1253" y="71">additional</text><text fill="#000000" stroke="none" font-family="Arial" font-size="13px" font-style="normal" font-weight="normal" text-decoration="none" x="1253" y="84">information</text><text fill="#000000" stroke="none" font-family="Arial" font-size="13px" font-style="normal" font-weight="normal" text-decoration="none" x="1253" y="97">is viewed</text><text fill="#000000" stroke="none" font-family="Arial" font-size="13px" font-style="normal" font-weight="normal" text-decoration="none" x="1253" y="110">from here</text></g></g><g transform="translate(-6,-30) scale(1,1)"><path fill="#ffffff" stroke="none" d="M 16 416 L 88.30810546875 416 L 98.30810546875 426 L 98.30810546875 517 L 16 517 L 16 416"/></g><g transform="translate(-6,-30) scale(1,1)"><path fill="none" stroke="#000000" d="M 16 416 L 88.30810546875 416 L 98.30810546875 426 L 98.30810546875 517 L 16 517 L 16 416 L 16 416" stroke-miterlimit="10"/></g><g transform="translate(-6,-30) scale(1,1)"><path fill="none" stroke="#000000" d="M 88.30810546875 416 L 88.30810546875 426 L 98.30810546875 426 L 88.30810546875 416" stroke-miterlimit="10"/></g><g transform="translate(-6,-30) scale(1,1)"><g><path fill="none" stroke="none"/><text fill="#000000" stroke="none" font-family="Arial" font-size="13px" font-style="normal" font-weight="normal" text-decoration="none" x="21" y="434">user can</text><text fill="#000000" stroke="none" font-family="Arial" font-size="13px" font-style="normal" font-weight="normal" text-decoration="none" x="21" y="447">enter</text><text fill="#000000" stroke="none" font-family="Arial" font-size="13px" font-style="normal" font-weight="normal" text-decoration="none" x="21" y="460">additional</text><text fill="#000000" stroke="none" font-family="Arial" font-size="13px" font-style="normal" font-weight="normal" text-decoration="none" x="21" y="473">information</text><text fill="#000000" stroke="none" font-family="Arial" font-size="13px" font-style="normal" font-weight="normal" text-decoration="none" x="21" y="486">about this</text><text fill="#000000" stroke="none" font-family="Arial" font-size="13px" font-style="normal" font-weight="normal" text-decoration="none" x="21" y="499">application</text></g></g><g transform="translate(-6,-30) scale(1,1)"><path fill="none" stroke="#000000" d="M 100 481 L 191 511" stroke-miterlimit="10" stroke-dasharray="3"/></g><g transform="translate(-6,-30) scale(1,1)"><path fill="none" stroke="#000000" d="M 1247 109 L 1092 175" stroke-miterlimit="10" stroke-dasharray="3"/></g></g></svg>